<svg id="Layer_1" data-name="Layer 1" xmlns="http://www.w3.org/2000/svg" xmlns:xlink="http://www.w3.org/1999/xlink" viewBox="0 0 24 24"><defs><style>.cls-1{fill:none;}.cls-2{fill:#ef081f;}.cls-3{clip-path:url(#clip-path);}.cls-4{fill:#fff;}.cls-5{fill:#001f80;}</style><clipPath id="clip-path"><path class="cls-1" d="M12,1.09A10.91,10.91,0,1,0,22.91,12,10.89,10.89,0,0,0,12,1.09Z"/></clipPath></defs><title>icon</title><circle class="cls-2" cx="12" cy="12" r="11.25"/><g class="cls-3"><rect class="cls-4" x="-3.63" y="0.62" width="31.25" height="22.72"/><polygon class="cls-2" points="27.62 9.71 13.86 9.71 13.86 0.63 10.11 0.63 10.11 9.71 -3.62 9.71 -3.62 14.26 10.11 14.26 10.11 23.34 13.86 23.34 13.86 14.26 27.62 14.26 27.62 9.71"/><polygon class="cls-5" points="-3.63 3.27 -3.63 8.21 3.19 8.21 -3.63 3.27"/><polygon class="cls-5" points="0.13 0.62 0.03 0.63 8.87 7.08 8.87 0.62 0.13 0.62"/><polygon class="cls-2" points="6.86 8.18 -3.63 0.62 -3.63 2.41 4.36 8.18 6.86 8.18"/><polygon class="cls-2" points="17.14 15.78 27.63 23.34 27.63 21.56 19.64 15.78 17.14 15.78"/><polygon class="cls-5" points="-3.63 20.73 -3.63 15.79 3.19 15.79 -3.63 20.73"/><polygon class="cls-5" points="0.13 23.38 0.03 23.37 8.87 16.92 8.87 23.38 0.13 23.38"/><polygon class="cls-2" points="6.81 15.78 -3.62 23.34 -1.18 23.34 8.88 16.09 8.88 15.78 6.81 15.78"/><polygon class="cls-5" points="27.63 3.27 27.63 8.21 20.81 8.21 27.63 3.27"/><polygon class="cls-5" points="23.87 0.62 23.97 0.63 15.13 7.08 15.13 0.62 23.87 0.62"/><polygon class="cls-2" points="27.62 0.63 25.27 0.63 15.14 7.94 15.14 8.19 17.28 8.19 27.62 0.63"/><polygon class="cls-5" points="27.63 20.73 27.63 15.78 20.81 15.78 27.63 20.73"/><polygon class="cls-5" points="23.87 23.38 23.97 23.37 15.13 16.92 15.13 23.38 23.87 23.38"/></g></svg>