<svg id="Layer_1" data-name="Layer 1" xmlns="http://www.w3.org/2000/svg" xmlns:xlink="http://www.w3.org/1999/xlink" viewBox="0 0 24 24"><defs><style>.cls-1{fill:none;}.cls-2{fill:#01411c;}.cls-3{clip-path:url(#clip-path);}.cls-4{fill:#fff;}.cls-5{fill:#ef081f;}.cls-6{fill:#001f80;}</style><clipPath id="clip-path"><path class="cls-1" d="M39.17,1.09A10.91,10.91,0,1,0,50.08,12,10.89,10.89,0,0,0,39.17,1.09Z"/></clipPath></defs><title>icon</title><circle class="cls-2" cx="12" cy="12" r="11.25"/><g class="cls-3"><rect class="cls-4" x="23.54" y="0.62" width="31.25" height="22.72"/><polygon class="cls-5" points="54.8 9.71 41.03 9.71 41.03 0.63 37.28 0.63 37.28 9.71 23.56 9.71 23.56 14.26 37.28 14.26 37.28 23.34 41.03 23.34 41.03 14.26 54.8 14.26 54.8 9.71"/><polygon class="cls-6" points="23.54 3.27 23.54 8.21 30.36 8.21 23.54 3.27"/><polygon class="cls-5" points="34.03 8.18 23.54 0.62 23.54 2.41 31.53 8.18 34.03 8.18"/><polygon class="cls-6" points="23.54 20.73 23.54 15.79 30.36 15.79 23.54 20.73"/><polygon class="cls-5" points="33.98 15.78 23.55 23.34 25.99 23.34 36.05 16.09 36.05 15.78 33.98 15.78"/></g><path class="cls-2" d="M22.91,12A10.91,10.91,0,0,1,6.85,21.62V2.38A10.91,10.91,0,0,1,22.91,12Z"/><path class="cls-4" d="M6.85,2.38V21.62a10.91,10.91,0,0,1,0-19.24Z"/><path class="cls-4" d="M11.63,13.08a4.13,4.13,0,0,1-1.14-3,4.19,4.19,0,0,1,1.63-3.3,4.64,4.64,0,0,0,1.41,9.06,4.62,4.62,0,0,0,4.24-2.7A4.26,4.26,0,0,1,11.63,13.08Z"/><path class="cls-4" d="M15.37,9.55c.05,0,.06,0,.07.08,0,.3.05.59.08.89a.78.78,0,0,1,0,.16l.05-.07c.16-.28.33-.56.49-.85,0,0,0,0,.09,0l.87.19.15,0h0l-.73-.82.56-1-.07,0-.9.4a.07.07,0,0,1-.1,0L15.3,7.8a.08.08,0,0,1,0,0l0,0v.05c0,.33.06.66.1,1,0,0,0,.07,0,.09l-.68.29-.28.13h0Z"/></svg>