<?xml version="1.0" encoding="utf-8"?>
<!-- Generator: Adobe Illustrator 24.0.1, SVG Export Plug-In . SVG Version: 6.00 Build 0)  -->
<svg version="1.1" id="Layer_1" xmlns="http://www.w3.org/2000/svg" xmlns:xlink="http://www.w3.org/1999/xlink" x="0px" y="0px"
	 viewBox="0 0 512 512" style="enable-background:new 0 0 512 512;" xml:space="preserve">
<title>ionicons-v5-j</title>
<g>
	<path d="M280,230.2c15.6,16.6,35.4,25.8,56,25.8c20.6,0,40.4-9.2,55.9-25.9c15.1-16.2,24.3-37.9,26-61c1.8-24.4-5.7-47-21.2-63.6
		C381.4,89.1,359.8,80,336,80c-24,0-45.6,9-60.9,25.4c-15.3,16.5-22.8,39.2-21.1,63.8C255.6,192.3,264.9,214,280,230.2z
		 M298.6,127.2c9.1-9.8,22.4-15.2,37.4-15.2c14.8,0,28.1,5.4,37.2,15.4c9.4,10,13.9,24.1,12.8,39.5c-1.1,15.9-7.3,30.6-17.5,41.5
		c-9.4,10-20.9,15.6-32.5,15.6c-11.5,0-23.1-5.5-32.5-15.6c-10.2-10.9-16.4-25.7-17.5-41.5C284.9,151,289.2,137.3,298.6,127.2z"/>
	<path d="M495,395.5c-8.4-34.2-29.3-62.4-60.4-81.5c-27.7-17.1-61.9-26.1-98.7-26.1c-36.1,0-71.2,9.4-98.7,26.5
		c-31,19.3-51.9,47.3-60.3,81.1c-2.2,9.1-0.2,18.7,5.3,25.8c5.3,6.8,13.3,10.7,22,10.7h263.6c8.7,0,16.7-3.9,21.9-10.7
		C495.2,414.2,497.2,404.6,495,395.5z M208.9,400c16.7-59,78.5-80,127.1-80c48.8,0,110.7,21,127.2,80H208.9z"/>
	<path d="M147,260c35.1,0,66.1-32.7,68.8-72.8c1.5-20.4-4.9-39.4-18-53.5c-12.9-13.9-31-21.6-50.9-21.6c-20,0-38.1,7.6-51,21.4
		c-13,14-19.4,33-17.9,53.6C80.9,227.3,111.8,260,147,260z M119.4,155.3C126.2,148,136,144,147,144c10.9,0,20.7,4,27.5,11.4
		c6.9,7.5,10.3,17.9,9.5,29.4c-1.6,23.4-18.6,43.2-37,43.2c-18.4,0-35.3-19.8-37-43.2C109.1,173,112.4,162.8,119.4,155.3z"/>
	<path d="M154,368.1H49.8c14.6-42.3,60.7-57.5,97.2-57.5c20.5,0,37.6,3.3,52.3,10c8,3.7,17.5,0.1,21.2-7.9s0.1-17.5-7.9-21.2
		c-19-8.7-40.5-12.9-65.7-12.9c-29.4,0-58,7.7-80.5,21.6C40.9,316,23.7,339,16.8,366.9c-2,8.2-0.2,17,4.8,23.4
		c4.9,6.1,12.2,9.7,20.1,9.7H154c8.8,0,16-7.1,16-15.9S162.8,368.1,154,368.1z"/>
</g>
</svg>
