<svg id="Layer_1" data-name="Layer 1" xmlns="http://www.w3.org/2000/svg" viewBox="0 0 24 24"><defs><style>.cls-1{fill:#6f7a80;}.cls-2{fill:#d9dadc;}</style></defs><title>App icon solid color</title><circle class="cls-1" cx="12" cy="12" r="12"/><path class="cls-2" d="M17.49,7.41h-2c-.34-1.07-.69-1.32-1.78-1.32H10.34c-1.21,0-1.45.16-1.9,1.32h-2a1.77,1.77,0,0,0-1.95,2v6.57a1.77,1.77,0,0,0,2,2h11a1.7,1.7,0,0,0,1.9-1.49.38.38,0,0,0,.08-.23.42.42,0,0,0-.84,0h0c-.06.67-.37.88-1.18.88H6.53c-.91,0-1.17-.25-1.17-1.15V9.38c0-.84.27-1.11,1.11-1.11H8.72c.46,0,.68-.16.68-.65s.14-.71.7-.71h3.81c.56,0,.7.13.7.72s.22.65.68.64c.79,0,1.57,0,2.36,0s1,.31,1,1c0,1.29,0,2.58,0,3.86,0,0,0,0,0,0a.42.42,0,0,0,.84,0V9.41A1.78,1.78,0,0,0,17.49,7.41Z"/><path class="cls-2" d="M18.66,14.68a.42.42,0,1,0,.42-.42A.42.42,0,0,0,18.66,14.68Z"/><path class="cls-2" d="M12,9.13a3.53,3.53,0,1,0,3.54,3.57A3.53,3.53,0,0,0,12,9.13Zm0,6.2a2.66,2.66,0,1,1,2.69-2.65A2.65,2.65,0,0,1,12,15.33Z"/><path class="cls-2" d="M17,9.11a.75.75,0,0,0,0,1.49.78.78,0,0,0,.78-.75A.8.8,0,0,0,17,9.11Z"/></svg>