<svg id="Layer_1" data-name="Layer 1" xmlns="http://www.w3.org/2000/svg" viewBox="0 0 24 24"><defs><style>.cls-1{fill:#6f7a80;}.cls-2{fill:#d9dadc;}</style></defs><title>App icon solid color</title><circle class="cls-1" cx="12" cy="12" r="12"/><path class="cls-2" d="M16.6,17.89a.62.62,0,0,0-.62.62h0a.62.62,0,0,0,.62.62.62.62,0,0,0,.62-.62h0A.61.61,0,0,0,16.6,17.89Z"/><path class="cls-2" d="M20,18.43a.29.29,0,0,0,0-.09,8.74,8.74,0,0,0-5.66-7.18,3.53,3.53,0,0,0,1.28-2.71,3.59,3.59,0,1,0-7.17,0,3.53,3.53,0,0,0,1.27,2.71A8.79,8.79,0,0,0,4,18.38s0,.09,0,.13H4a.62.62,0,0,0,.62.62H14.74a.62.62,0,0,0,.62-.62h0a.62.62,0,0,0-.62-.62H5.37A7.1,7.1,0,0,1,12,12h0a7.11,7.11,0,0,1,6.62,5.86h-.2a.61.61,0,0,0-.58.4.78.78,0,0,0,0,.22h0a.61.61,0,0,0,.53.61h1a.62.62,0,0,0,.62-.62h0A.22.22,0,0,0,20,18.43Zm-8-7.65h0a2.34,2.34,0,1,1,2.35-2.33A2.34,2.34,0,0,1,12,10.78Z"/></svg>