<?xml version="1.0" encoding="utf-8"?>
<!-- Generator: Adobe Illustrator 24.0.1, SVG Export Plug-In . SVG Version: 6.00 Build 0)  -->
<svg version="1.1" id="Layer_1" xmlns="http://www.w3.org/2000/svg" xmlns:xlink="http://www.w3.org/1999/xlink" x="0px" y="0px"
	 viewBox="0 0 512 512" style="enable-background:new 0 0 512 512;" xml:space="preserve">
<title>ionicons-v5-e</title>
<g>
	<path d="M432,144h-59c-3,0-6.8-1.9-9.6-5l-25.9-40.9c-0.4-0.7-0.9-1.3-1.4-1.9C327.1,85.8,315,80,302,80h-92
		c-13,0-25.1,5.8-34.1,16.2c-0.5,0.6-1,1.2-1.4,1.9l-25.9,41c-2.2,2.4-5.3,5-8.6,5v-8c0-8.8-7.2-16-16-16h-24c-8.8,0-16,7.2-16,16v8
		h-4c-26.5,0-48,21.5-48,48v192c0,26.5,21.5,48,48,48h352c26.5,0,48-21.5,48-48V192C480,165.5,458.5,144,432,144z M448,384
		c0,8.8-7.2,16-16,16H80c-8.8,0-16-7.2-16-16V192c0-8.8,7.2-16,16-16h60c12.5,0,24.1-5.8,33.6-16.9c0.5-0.6,1-1.2,1.4-1.9l25.9-40.9
		c2-2.1,5.1-4.3,9.1-4.3h92c4,0,7.1,2.2,9.1,4.3l25.9,40.9c0.4,0.6,0.9,1.3,1.4,1.9c9.2,10.7,21.8,16.9,34.6,16.9h59
		c8.8,0,16,7.2,16,16V384z"/>
	<path d="M256,176c-52.9,0-96,43.1-96,96s43.1,96,96,96s96-43.1,96-96S308.9,176,256,176z M256,336c-35.3,0-64-28.7-64-64
		c0-35.3,28.7-64,64-64c35.3,0,64,28.7,64,64C320,307.3,291.3,336,256,336z"/>
</g>
</svg>
