<?xml version="1.0" encoding="utf-8"?>
<!-- Generator: Adobe Illustrator 24.0.1, SVG Export Plug-In . SVG Version: 6.00 Build 0)  -->
<svg version="1.1" id="Layer_1" xmlns="http://www.w3.org/2000/svg" xmlns:xlink="http://www.w3.org/1999/xlink" x="0px" y="0px"
	 viewBox="0 0 512 512" style="enable-background:new 0 0 512 512;" xml:space="preserve">
<title>ionicons-v5-q</title>
<path d="M495.9,190.6c0-0.1,0-0.3,0-0.4c-0.1-0.5-0.1-0.9-0.2-1.3c0-0.1,0-0.2-0.1-0.3c-0.1-0.4-0.2-0.7-0.3-1.1
	c0-0.2-0.1-0.3-0.1-0.5c-0.1-0.4-0.3-0.8-0.4-1.1c-0.1-0.1-0.1-0.3-0.2-0.4c-0.1-0.3-0.3-0.6-0.4-0.9c-0.1-0.1-0.1-0.3-0.2-0.4
	c-0.2-0.4-0.4-0.7-0.7-1.1c0,0-0.1-0.1-0.1-0.1c-0.2-0.3-0.5-0.7-0.7-1c-0.1-0.1-0.1-0.2-0.2-0.3c-0.6-0.7-1.2-1.3-1.9-1.9
	c-0.1-0.1-0.2-0.2-0.3-0.2c-0.3-0.2-0.6-0.5-0.9-0.7c-0.1-0.1-0.1-0.1-0.2-0.2c-0.3-0.2-0.6-0.4-1-0.6l-224-128
	c-4.9-2.8-11-2.8-15.9,0l-224,128c-5,2.8-8.1,8.2-8.1,13.9s3.1,11,8.1,13.9L96,247v121c0,5.8,3.2,11.2,8.2,14l144,80c0,0,0,0,0,0
	c0.1,0.1,0.2,0.1,0.4,0.2c0.3,0.1,0.6,0.3,0.9,0.4c0.1,0.1,0.3,0.1,0.4,0.2c0.4,0.2,0.8,0.3,1.2,0.4c0.1,0,0.3,0.1,0.4,0.1
	c0.3,0.1,0.7,0.2,1,0.3c0.1,0,0.3,0.1,0.4,0.1c0.4,0.1,0.9,0.2,1.3,0.2c0.1,0,0.2,0,0.3,0c0.5,0,1,0.1,1.4,0.1c0.5,0,1,0,1.4-0.1
	c0.1,0,0.2,0,0.3,0c0.4,0,0.9-0.1,1.3-0.2c0.1,0,0.3-0.1,0.4-0.1c0.3-0.1,0.7-0.2,1-0.3c0.1,0,0.3-0.1,0.4-0.1
	c0.4-0.1,0.8-0.3,1.2-0.4c0.1-0.1,0.3-0.1,0.4-0.2c0.3-0.1,0.6-0.3,0.9-0.4c0.1-0.1,0.2-0.1,0.4-0.2c0,0,0,0,0.1,0l144-80
	c5.1-2.8,8.2-8.2,8.2-14V247l48-27.4V368c0,8.8,7.2,16,16,16s16-7.2,16-16V192C496,191.5,496,191,495.9,190.6z M128,265.3l112,64
	v91.5l-112-62.2V265.3z M384,358.6l-112,62.2v-91.5l112-64V358.6z M256,301.6L64.2,192L256,82.4L447.8,192L256,301.6z"/>
</svg>
