<?xml version="1.0" encoding="utf-8"?>
<!-- Generator: Adobe Illustrator 24.0.1, SVG Export Plug-In . SVG Version: 6.00 Build 0)  -->
<svg version="1.1" id="Layer_1" xmlns="http://www.w3.org/2000/svg" xmlns:xlink="http://www.w3.org/1999/xlink" x="0px" y="0px"
	 viewBox="0 0 512 512" style="enable-background:new 0 0 512 512;" xml:space="preserve">
<title>ionicons-v5-j</title>
<g>
	<path d="M288,256c52.8,0,99.4-49.7,104-110.8c0,0,0,0,0,0c2.3-30.7-7.4-59.3-27.1-80.6C345.3,43.6,318,32,288,32
		c-30.2,0-57.6,11.5-77,32.4c-19.6,21.1-29.2,49.8-27,80.8C188.5,206.3,235.1,256,288,256z M234.4,86.2C247.7,71.9,266.8,64,288,64
		c21,0,40,7.9,53.4,22.4c13.6,14.7,20.3,34.7,18.7,56.5v0c-3.3,44-36.3,81.2-72,81.2c-35.8,0-68.8-37.2-72-81.2
		C214.4,120.8,220.9,100.7,234.4,86.2z"/>
	<path d="M495.4,439.8c-8.4-46.8-34.8-86.1-76.2-113.7c-36.8-24.5-83.4-38-131.2-38c-47.8,0-94.4,13.5-131.2,38
		c-41.4,27.6-67.8,66.9-76.2,113.7c-2,10.7,0.6,21.3,7.1,29.1c6,7.2,14.6,11.2,24.3,11.2h352c9.6,0,18.2-4,24.2-11.1
		C494.7,461.1,497.3,450.5,495.4,439.8z M463.8,448H112.2c-0.2-0.5-0.3-1.3-0.1-2.6C127.6,359.3,214.2,320,288,320
		c73.8,0,160.4,39.3,175.9,125.4C464.1,446.7,464,447.5,463.8,448z"/>
	<path d="M104,288v-40h40c8.8,0,16-7.2,16-16s-7.2-16-16-16h-40v-40c0-8.8-7.2-16-16-16s-16,7.2-16,16v40H32c-8.8,0-16,7.2-16,16
		s7.2,16,16,16h40v40c0,8.8,7.2,16,16,16S104,296.8,104,288z"/>
</g>
</svg>
