<?xml version="1.0" encoding="utf-8"?>
<!-- Generator: Adobe Illustrator 24.0.1, SVG Export Plug-In . SVG Version: 6.00 Build 0)  -->
<svg version="1.1" id="Layer_1" xmlns="http://www.w3.org/2000/svg" xmlns:xlink="http://www.w3.org/1999/xlink" x="0px" y="0px"
	 viewBox="0 0 512 512" style="enable-background:new 0 0 512 512;" xml:space="preserve">
<title>ionicons-v5-l</title>
<g>
	<path d="M368,32H144c-35.3,0-64,28.7-64,64v320c0,35.3,28.7,64,64,64h224c35.3,0,64-28.7,64-64V96C432,60.7,403.3,32,368,32z
		 M400,416c0,17.6-14.4,32-32,32H144c-17.6,0-32-14.4-32-32V96c0-17.6,14.4-32,32-32h224c17.6,0,32,14.4,32,32V416z"/>
	<path d="M336,112H176c-8.8,0-16,7.2-16,16s7.2,16,16,16h160c8.8,0,16-7.2,16-16S344.8,112,336,112z"/>
	<path d="M336,192H176c-8.8,0-16,7.2-16,16s7.2,16,16,16h160c8.8,0,16-7.2,16-16S344.8,192,336,192z"/>
	<path d="M336,352H176c-8.8,0-16,7.2-16,16s7.2,16,16,16h160c8.8,0,16-7.2,16-16S344.8,352,336,352z"/>
	<path d="M176,304h80c8.8,0,16-7.2,16-16s-7.2-16-16-16h-80c-8.8,0-16,7.2-16,16S167.2,304,176,304z"/>
</g>
</svg>
