<?xml version="1.0" encoding="utf-8"?>
<!-- Generator: Adobe Illustrator 24.0.1, SVG Export Plug-In . SVG Version: 6.00 Build 0)  -->
<svg version="1.1" id="Layer_1" xmlns="http://www.w3.org/2000/svg" xmlns:xlink="http://www.w3.org/1999/xlink" x="0px" y="0px"
	 viewBox="0 0 512 512" style="enable-background:new 0 0 512 512;" xml:space="preserve">
<path d="M484.2,186.4c-0.1-33-25.4-61.5-57.4-64.9c-14.8-1.6-30-1.6-44.6-1.5c-6.6,0-13.4,0-20.1-0.1c-2.4,0-4.8-0.2-7.3-0.3
	c0,0-0.1,0-0.1,0c0-2.3,0-4.6,0-6.8c0-7.1,0.1-13.9-0.1-20.6c-0.4-14.8-5.5-27.6-14.8-37c-9.3-9.5-22-14.7-36.7-14.9
	c-31.3-0.6-62.4-0.6-92.3,0c-29.2,0.6-50,21.7-50.5,51.5c-0.1,6.9-0.1,13.9-0.1,21.2c0,2.3,0,4.6,0,7c-6,0-11.9,0-17.7,0
	c-15.4,0-29.9-0.1-44.7,0.1c-41.4,0.5-70.3,29.9-70.3,71.3c0,14.2,0,28.5-0.1,42.7c-0.1,55.2-0.2,112.2,0.5,168.3
	c0.2,12.4,3.9,26.1,10.4,37.5c12.2,21.6,33.2,32.6,62.5,32.6c0.1,0,0.2,0,0.3,0c72-0.2,145.2-0.1,216.1-0.1c31,0,62.1,0,93.1,0
	c4,0,7.9-0.1,11.5-0.4c34.8-2.6,62.1-31.7,62.2-66.2C484.5,331.8,484.5,258.1,484.2,186.4z M451.7,237.8c0.1,4.8,0.2,9.8,0.2,14.8
	H352c-0.3-1.9-0.3-4-0.3-6.1c-0.1-5.5-0.2-11.8-4.5-15.8c-2.8-2.7-6.9-3.9-12.5-3.6c-15.4,0.6-15.6,12.8-15.7,20.8
	c0,1.6,0,3.1-0.1,4.6H193c-0.2-1.5-0.2-3.3-0.2-5c-0.1-5.8-0.3-12.5-4.9-16.7c-3-2.8-7.3-3.9-13-3.6c-14.7,0.9-14.7,12.4-14.6,20.1
	c0,1.8,0,3.5-0.1,5.1H60.6c0-6.1-0.1-12.2-0.2-18.2c-0.3-16.7-0.6-34.1,0.7-50.9c1.2-16.8,17.7-28.4,33-30c3.2-0.3,6.4-0.3,9.8-0.3
	l1.1,0c28.6,0,57.7,0,85.8,0.1c70.9,0.1,144.3,0.2,216.4-0.5c0.2,0,0.4,0,0.6,0c13.9,0,25.9,4.7,34,13.3
	c7.7,8.2,11.4,19.6,10.5,32.1C451.2,211,451.4,224,451.7,237.8z M60.1,318.9c0-9.8,0-19.6,0-29.4c0-0.9,0-1.9,0.1-2.9h99.9
	c0.3,1.9,0.3,4,0.3,6.2c0,5.4,0,11.4,4.2,15.4c2.8,2.7,7,3.9,12.8,3.7c15.4-0.7,15.5-12.4,15.6-20.2c0-1.8,0-3.7,0.2-5.5h125.7
	c0.3,1.9,0.3,4,0.4,6.2c0.1,5.5,0.2,11.7,4.6,15.8c2.9,2.7,7.1,3.9,12.9,3.7c15.2-0.7,15-11.8,15-19.1c0-2.1,0-4.3,0.2-6.2h100v40.6
	c0,7.5,0,15,0,22.5c0,16.8,0,34.2,0,51.2c-0.1,22.3-16.1,38.4-38,38.5c-100.9,0.2-204.1,0.2-315.4,0c-22.1,0-38.3-16.1-38.4-38.1
	C60,373.7,60.1,345.9,60.1,318.9z M194,85.3c1-7.3,7-12,15.5-12.1c37.5-0.4,68.1-0.4,96.1,0.1c8.8,0.1,14.8,5.6,15.6,14.3
	c0.8,7.9,0.6,15.9,0.4,24.3c-0.1,2.4-0.1,5-0.1,7.5H193.6c0-2.7-0.1-5.3-0.2-7.9C193.1,102.4,192.9,93.8,194,85.3z"/>
</svg>
