<?xml version="1.0" encoding="utf-8"?>
<!-- Generator: Adobe Illustrator 24.0.1, SVG Export Plug-In . SVG Version: 6.00 Build 0)  -->
<svg version="1.1" id="Layer_1" xmlns="http://www.w3.org/2000/svg" xmlns:xlink="http://www.w3.org/1999/xlink" x="0px" y="0px"
	 viewBox="0 0 512 512" style="enable-background:new 0 0 512 512;" xml:space="preserve">
<path d="M467.8,191.5c-0.1-30.6-23.5-57.1-53.3-60.2c-13.7-1.5-27.8-1.4-41.4-1.4c-6.1,0-12.5,0-18.7-0.1c-2.2,0-4.4-0.2-6.7-0.3
	c0,0-0.1,0-0.1,0c0-2.2,0-4.3,0-6.3c0-6.6,0.1-12.9-0.1-19.2c-0.4-13.7-5.1-25.6-13.7-34.4c-8.7-8.8-20.5-13.6-34.1-13.9
	c-29.1-0.5-57.9-0.5-85.6,0c-27.1,0.5-46.4,20.2-46.9,47.8c-0.1,6.4-0.1,12.9-0.1,19.7c0,2.1,0,4.3,0,6.5c-5.5,0-11,0-16.4,0
	c-14.3,0-27.8-0.1-41.4,0.1c-38.4,0.5-65.2,27.7-65.3,66.2c0,13.2,0,26.4-0.1,39.6c-0.1,51.2-0.2,104.1,0.5,156.1
	c0.1,11.5,3.7,24.2,9.6,34.8c11.3,20.1,30.8,30.2,58,30.2c0.1,0,0.2,0,0.3,0c66.8-0.2,134.8-0.1,200.5-0.1c28.8,0,57.6,0,86.4,0
	c3.7,0,7.3-0.1,10.7-0.4c32.3-2.4,57.6-29.4,57.8-61.4C468.1,326.4,468.1,258,467.8,191.5z M437.6,239.1c0.1,4.5,0.2,9.1,0.2,13.7
	H345c-0.2-1.7-0.3-3.7-0.3-5.7c-0.1-5.1-0.2-10.9-4.2-14.7c-2.6-2.5-6.4-3.6-11.6-3.4c-14.3,0.6-14.4,11.9-14.5,19.3
	c0,1.5,0,2.9-0.1,4.2H197.5c-0.1-1.4-0.2-3-0.2-4.7c-0.1-5.4-0.3-11.6-4.5-15.5c-2.8-2.6-6.7-3.7-12.1-3.3
	c-13.7,0.8-13.6,11.5-13.6,18.6c0,1.6,0,3.2-0.1,4.7H74.7c0-5.6-0.1-11.3-0.2-16.9c-0.3-15.5-0.5-31.6,0.6-47.2
	c1.1-15.6,16.4-26.4,30.6-27.8c2.9-0.3,5.9-0.3,9.1-0.3l1,0c26.5,0,53.5,0,79.6,0.1c65.8,0.1,133.9,0.2,200.8-0.5c0.2,0,0.4,0,0.6,0
	c12.9,0,24,4.4,31.5,12.4c7.2,7.6,10.6,18.2,9.7,29.8C437.1,214.2,437.3,226.3,437.6,239.1z M74.2,314.4c0-9.1,0-18.2,0-27.2
	c0-0.9,0-1.7,0.1-2.7h92.7c0.2,1.7,0.2,3.7,0.2,5.7c0,5,0,10.6,3.9,14.3c2.6,2.5,6.5,3.6,11.9,3.4c14.3-0.6,14.4-11.5,14.5-18.7
	c0-1.7,0-3.5,0.2-5.1h116.7c0.3,1.7,0.3,3.8,0.4,5.7c0.1,5.1,0.2,10.9,4.3,14.6c2.7,2.5,6.6,3.7,12,3.4c14.1-0.6,14-10.9,13.9-17.8
	c0-2,0-4,0.2-5.7h92.8V322c0,7,0,13.9,0,20.9c0,15.6,0,31.7,0,47.5c-0.1,20.7-14.9,35.7-35.3,35.7c-93.7,0.1-189.4,0.1-292.6,0
	c-20.5,0-35.5-14.9-35.6-35.4C74.2,365.2,74.2,339.4,74.2,314.4z M198.4,97.6c0.9-6.7,6.5-11.1,14.4-11.2
	c34.8-0.4,63.1-0.3,89.2,0.1c8.2,0.1,13.7,5.2,14.5,13.3c0.7,7.3,0.5,14.7,0.4,22.5c0,2.3-0.1,4.6-0.1,6.9H198.1
	c0-2.5-0.1-4.9-0.2-7.4C197.6,113.5,197.4,105.5,198.4,97.6z"/>
</svg>
