<?xml version="1.0" encoding="utf-8"?>
<!-- Generator: Adobe Illustrator 24.0.1, SVG Export Plug-In . SVG Version: 6.00 Build 0)  -->
<svg version="1.1" id="Layer_1" xmlns="http://www.w3.org/2000/svg" xmlns:xlink="http://www.w3.org/1999/xlink" x="0px" y="0px"
	 viewBox="0 0 512 512" style="enable-background:new 0 0 512 512;" xml:space="preserve">
<title>ionicons-v5-i</title>
<g>
	<path d="M420.7,68.7c6.2-5.9,15.9-5.9,22,0c6.4,6.1,6.7,16.2,0.6,22.6l-352,352c-3,3-7.1,4.7-11.3,4.7c-4.2,0-8.3-1.7-11.3-4.7
		c-6.3-6.2-6.3-16.4,0-22.6L420.7,68.7z"/>
	<path d="M179.8,400.1l21.6-21.6c1-1,2.5-1.4,3.8-1c16.7,4.3,33.9,6.5,51.2,6.5c41.5,0,81.5-12.3,118.9-36.5
		c34.1-22,64.7-53.5,88.7-91v-0.1c-19.9-28.6-41.8-52.7-65.2-72.2c-0.8-0.7-1-2-0.3-2.8c0,0,0.1-0.1,0.1-0.1l19.9-19.9
		c0.7-0.7,1.9-0.8,2.7-0.1c24.9,21,48,46.8,69.1,76.9c7.4,10.6,7.7,24.7,0.6,35.5c-26.4,41.3-60.4,76.1-98.3,100.7
		C350,402,304.1,416,256.3,416c-25.8-0.1-51.4-4.3-75.8-12.6c-1-0.4-1.6-1.5-1.3-2.5C179.4,400.6,179.5,400.3,179.8,400.1z"/>
	<path d="M21.1,238.6c26.5-40.9,60.8-75.7,99.3-100.5C163,110.5,210,96,256.3,96c25.5,0,50.8,4.4,74.9,12.8c1,0.4,1.6,1.5,1.2,2.5
		c-0.1,0.3-0.3,0.5-0.5,0.8l-21.5,21.5c-1,1-2.5,1.4-3.9,1c-16.4-4.4-33.3-6.7-50.2-6.7c-40.7,0-80.6,12.4-118.5,37
		C103.1,187.4,72,218.9,48,256c0,0,0,0.1,0,0.2c17.4,27.4,39.1,52,64.1,72.7c0.9,0.7,1,2,0.3,2.8c0,0-0.1,0.1-0.1,0.1l-19.9,19.9
		c-0.7,0.7-1.9,0.8-2.7,0.1c-26.7-22.5-49.9-49-68.6-78.5C14.3,262.8,14.3,249.2,21.1,238.6z"/>
	<path d="M165.8,278.3c-0.8,0.8-2,0.8-2.8,0c-0.3-0.3-0.5-0.6-0.6-1c-11.8-51.7,20.6-103.2,72.3-114.9c7-1.6,14.2-2.4,21.3-2.4
		c7.2,0,14.4,0.8,21.4,2.4c1.1,0.2,1.8,1.3,1.6,2.4c-0.1,0.4-0.3,0.7-0.6,1L165.8,278.3z"/>
	<path d="M234.6,349.7c-1.1-0.2-1.8-1.3-1.6-2.4c0.1-0.4,0.3-0.7,0.6-1l112.6-112.6c0.8-0.8,2-0.8,2.8,0c0.3,0.3,0.5,0.6,0.6,1
		c11.8,51.7-20.5,103.2-72.2,115C263.3,352.9,248.7,352.9,234.6,349.7z"/>
</g>
</svg>
