<?xml version="1.0" encoding="utf-8"?>
<!-- Generator: Adobe Illustrator 24.0.1, SVG Export Plug-In . SVG Version: 6.00 Build 0)  -->
<svg version="1.1" id="Layer_1" xmlns="http://www.w3.org/2000/svg" xmlns:xlink="http://www.w3.org/1999/xlink" x="0px" y="0px"
	 viewBox="0 0 512 512" style="enable-background:new 0 0 512 512;" xml:space="preserve">
<title>ionicons-v5-f</title>
<g>
	<path d="M256,448c-6.3,0-12.5-1.9-18-5.6c-37.6-25.5-92.2-65-131.4-112.8c-40-48.7-59.2-98.8-58.6-153C48.6,114.5,98.5,64,159.1,64
		c48.1,0,80,29.5,96.9,51c16.9-21.5,48.8-51,96.9-51c60.6,0,110.4,50.5,111.1,112.6c0.5,54.2-18.6,104.3-58.6,153
		c-39.2,47.8-93.8,87.3-131.4,112.8C268.5,446.2,262.3,448,256,448z M159.1,96c-43.1,0-78.6,36.3-79.1,81
		c-1.1,104.7,88.4,179.6,176,239c87.6-59.5,177.1-134.4,176-239c-0.5-44.6-35.9-81-79.1-81c-54,0-82.4,54.6-82.6,55.2
		c-2.7,5.4-8.2,8.8-14.3,8.8c-6.1,0-11.6-3.4-14.3-8.9C241.4,150.6,213,96,159.1,96z"/>
</g>
</svg>
