<?xml version="1.0" encoding="utf-8"?>
<!-- Generator: Adobe Illustrator 24.0.1, SVG Export Plug-In . SVG Version: 6.00 Build 0)  -->
<svg version="1.1" id="Layer_1" xmlns="http://www.w3.org/2000/svg" xmlns:xlink="http://www.w3.org/1999/xlink" x="0px" y="0px"
	 viewBox="0 0 512 512" style="enable-background:new 0 0 512 512;" xml:space="preserve">
<title>ionicons-v5-f</title>
<path d="M256,448c-6.4,0-12.7-1.9-18-5.6c-78.6-53.4-112.6-89.9-131.4-112.8c-40-48.8-59.2-98.8-58.6-153
	C48.6,114.5,98.5,64,159.1,64c44.1,0,74.6,24.8,92.4,45.5c2.2,2.5,6,2.8,8.5,0.6c0.2-0.2,0.4-0.4,0.6-0.6
	C278.3,88.8,308.8,64,352.9,64c60.6,0,110.4,50.5,111.1,112.6c0.5,54.2-18.6,104.3-58.6,153c-18.8,22.9-52.8,59.5-131.4,112.8
	C268.7,446.1,262.4,448,256,448z"/>
</svg>
