<?xml version="1.0" encoding="utf-8"?>
<!-- Generator: Adobe Illustrator 24.0.1, SVG Export Plug-In . SVG Version: 6.00 Build 0)  -->
<svg version="1.1" id="Layer_1" xmlns="http://www.w3.org/2000/svg" xmlns:xlink="http://www.w3.org/1999/xlink" x="0px" y="0px"
	 viewBox="0 0 512 512" style="enable-background:new 0 0 512 512;" xml:space="preserve">
<title>ionicons-v5-i</title>
<path d="M491.1,244.4L416,172.6V64c0-8.8-7.2-16-16-16h-48c-8.8,0-16,7.2-16,16v32l-57.8-55.4c-5.4-5.5-13.4-8.6-22.1-8.6
	c0,0,0,0-0.1,0c-8.7,0-16.7,3.1-22.2,8.6L20.9,244.4c-6.4,6.1-6.6,16.2-0.5,22.6c3.1,3.3,7.3,4.9,11.6,4.9c4,0,8-1.5,11.1-4.4
	l20.9-20V448c0,17.6,14.4,32,32,32h96c8.8,0,16-7.2,16-16V328c0-4.4,3.6-8,8-8h80c4.4,0,8,3.6,8,8v136c0,8.8,7.2,16,16,16h96
	c17.6,0,32-14.4,32-32V247.5l20.9,20c6.4,6.1,16.5,5.9,22.6-0.5C497.7,260.7,497.4,250.6,491.1,244.4z M368,80h16v62l-16-15.3V80z
	 M416,448h-80V328c0-22.1-17.9-40-40-40h-80c-22.1,0-40,17.9-40,40v120H96V216.9L255.7,64c0.2,0,0.4,0,0.6,0L416,216.9V448z"/>
</svg>
