<?xml version="1.0" encoding="utf-8"?>
<!-- Generator: Adobe Illustrator 24.0.1, SVG Export Plug-In . SVG Version: 6.00 Build 0)  -->
<svg version="1.1" id="Layer_1" xmlns="http://www.w3.org/2000/svg" xmlns:xlink="http://www.w3.org/1999/xlink" x="0px" y="0px"
	 viewBox="0 0 24 24" style="enable-background:new 0 0 24 24;" xml:space="preserve">
<title>icon</title>
<path d="M20.8,6.7v5.6c0,0.4-0.3,0.7-0.7,0.7c0,0,0,0,0,0l0,0c-0.4,0-0.7-0.3-0.7-0.7V6.7c0-0.3-0.3-0.6-0.6-0.6l0,0h-8
	c-0.3,0-0.6,0.3-0.6,0.6v2.7c0,0.4-0.3,0.8-0.8,0.8S8.6,9.7,8.6,9.3V6.7c0-1.2,0.9-2.1,2.1-2.1h8C19.8,4.6,20.7,5.5,20.8,6.7z"/>
<path d="M20,13.8L20,13.8c0.4,0,0.8,0.3,0.8,0.7l0,0c0,0.4-0.3,0.7-0.7,0.7h0c-0.4,0-0.7-0.3-0.7-0.7l0,0
	C19.3,14.1,19.6,13.8,20,13.8z"/>
<path d="M20.8,16.7v0.6c0,1.2-0.9,2.1-2.1,2.1h-8c-1.1,0-2.1-0.9-2.1-2.1v-2.7c0-0.4,0.3-0.8,0.8-0.8s0.8,0.3,0.8,0.8v2.7
	c0,0.3,0.2,0.6,0.6,0.6c0,0,0,0,0,0h8c0.3,0,0.6-0.3,0.6-0.6l0,0v-0.6c0-0.4,0.3-0.7,0.7-0.7c0,0,0,0,0,0l0,0c0.4,0,0.7,0.2,0.7,0.6
	C20.7,16.6,20.7,16.7,20.8,16.7z"/>
<path d="M14.7,12.8c0.4,0,0.8-0.3,0.8-0.8s-0.3-0.8-0.8-0.8H5.2l2.9-2.7L7.4,7.8L2.9,12l4.6,4.2l0.7-0.8l-2.9-2.7H14.7z"/>
</svg>
