<?xml version="1.0" encoding="utf-8"?>
<!-- Generator: Adobe Illustrator 24.0.1, SVG Export Plug-In . SVG Version: 6.00 Build 0)  -->
<svg version="1.1" id="Layer_1" xmlns="http://www.w3.org/2000/svg" xmlns:xlink="http://www.w3.org/1999/xlink" x="0px" y="0px"
	 viewBox="0 0 512 512" style="enable-background:new 0 0 512 512;" xml:space="preserve">
<title>ionicons-v5-p</title>
<g>
	<path d="M467,45.2c-8.4-8.5-19.6-13.2-31.5-13.2l-123.2,0c0,0,0,0,0,0c-8.1,0-15.7,3.1-21.5,8.9L45.1,286.6
		c-17.4,17.4-17.4,45.8,0,63.3l117,117c8.7,8.7,20.2,13,31.6,13c11.5,0,22.9-4.3,31.7-13l245.6-245.6c5.7-5.8,8.9-13.4,8.8-21.5
		V76.9C480,64.9,475.4,53.7,467,45.2z M448,199.2L202.9,444.3c-5,5-13.1,5-18.1,0l-117-117c-5-5-5-13.1,0-18.1L313,64h122.3l0.1,0
		c7,0,12.6,5.7,12.6,12.8V199.2z"/>
	<circle cx="384" cy="128" r="32"/>
</g>
</svg>
