<svg id="Layer_1" data-name="Layer 1" xmlns="http://www.w3.org/2000/svg" viewBox="0 0 24 24"><title>App icon solid color</title><polygon points="6.36 10.86 7.96 10.86 7.16 8.65 6.36 10.86"/><path d="M19.06,7H14.58a4,4,0,0,0-.85.09A4.44,4.44,0,0,0,9.41,3.65H4.93A4.43,4.43,0,0,0,.5,8.09v4.49A4.43,4.43,0,0,0,4.93,17H9.41a4.82,4.82,0,0,0,.86-.09,4.43,4.43,0,0,0,4.31,3.42h4.48a4.44,4.44,0,0,0,4.44-4.44V11.43A4.44,4.44,0,0,0,19.06,7ZM8.92,13.39,8.3,11.76H6l-.59,1.63H4.36l.09-.19L6.71,7.27h.91l0,.09,2.33,6Zm13.43,2.52a3.29,3.29,0,0,1-3.29,3.29H14.58a3.28,3.28,0,0,1-3.22-2.65,4.42,4.42,0,0,0,2.49-4V8.23a3.56,3.56,0,0,1,.73-.09h4.48a3.29,3.29,0,0,1,3.29,3.29Z"/><path d="M16.53,14.35c-.12.37-.25.73-.38,1.1a3.62,3.62,0,0,1-.56,1,5.54,5.54,0,0,1-.73.54l-.78.49c-.09.05-.14.11-.13.17a.09.09,0,0,0,.1.06l.6-.11.66-.08a.71.71,0,0,0,.54-.34,7.28,7.28,0,0,0,.74-1.93,3.22,3.22,0,0,0,.17-.88s0-.08-.09-.08A.14.14,0,0,0,16.53,14.35Z"/><path d="M19.61,9.67a4.25,4.25,0,0,0-.49.51,1,1,0,0,1-.69.25,1.09,1.09,0,0,1-.39-.08.42.42,0,0,1-.18-.08.4.4,0,0,0-.21-.08.25.25,0,0,0-.16.06,3.8,3.8,0,0,0-1.15,1.44c0,.11,0,.17,0,.19a.24.24,0,0,0,.14,0,2,2,0,0,1,.59-.56.1.1,0,0,1,.07,0,.24.24,0,0,1,.13.06.41.41,0,0,0,.12.07,1,1,0,0,0,.38.08,1.4,1.4,0,0,0,.82-.28A2.91,2.91,0,0,0,19.7,9.72C19.7,9.65,19.67,9.63,19.61,9.67Z"/><path d="M18.09,12.33a8.76,8.76,0,0,0-.57,1.36c0,.72,0,1.38.05,2A6.91,6.91,0,0,1,17.44,17c0,.1,0,.16,0,.18a.07.07,0,0,0,.06,0s.09,0,.14-.15a4.74,4.74,0,0,0,.42-1.63c0-.25,0-.68,0-1.29s0-1,.05-1.25.05-.42.07-.54A.1.1,0,0,0,18.09,12.33Z"/></svg>