<?xml version="1.0" encoding="utf-8"?>
<!-- Generator: Adobe Illustrator 24.0.1, SVG Export Plug-In . SVG Version: 6.00 Build 0)  -->
<svg version="1.1" id="Layer_1" xmlns="http://www.w3.org/2000/svg" xmlns:xlink="http://www.w3.org/1999/xlink" x="0px" y="0px"
	 viewBox="0 0 512 512" style="enable-background:new 0 0 512 512;" xml:space="preserve">
<title>ionicons-v5-o</title>
<g>
	<path d="M160,168h288c13.3,0,24-10.7,24-24s-10.7-24-24-24H160c-13.3,0-24,10.7-24,24S146.7,168,160,168z"/>
	<path d="M448,232H160c-13.3,0-24,10.7-24,24s10.7,24,24,24h288c13.3,0,24-10.7,24-24S461.3,232,448,232z"/>
	<path d="M448,344H160c-13.3,0-24,10.7-24,24s10.7,24,24,24h288c13.3,0,24-10.7,24-24S461.3,344,448,344z"/>
	<circle cx="80" cy="144" r="32"/>
	<circle cx="80" cy="256" r="32"/>
	<circle cx="80" cy="368" r="32"/>
</g>
</svg>
