<?xml version="1.0" encoding="utf-8"?>
<!-- Generator: Adobe Illustrator 24.0.1, SVG Export Plug-In . SVG Version: 6.00 Build 0)  -->
<svg version="1.1" id="Layer_1" xmlns="http://www.w3.org/2000/svg" xmlns:xlink="http://www.w3.org/1999/xlink" x="0px" y="0px"
	 viewBox="0 0 512 512" style="enable-background:new 0 0 512 512;" xml:space="preserve">
<title>ionicons-v5-g</title>
<path d="M368,192h-16v-79c0-52.9-43.1-96-96-96s-96,43.1-96,96v79h-16c-35.3,0-64,28.7-64,64v176c0,35.3,28.7,64,64,64h224
	c35.3,0,64-28.7,64-64V256C432,220.7,403.3,192,368,192z M192,113c0-35.3,28.7-64,64-64c35.3,0,64,28.7,64,64v79H192V113z M400,432
	c0,17.6-14.4,32-32,32H144c-17.6,0-32-14.4-32-32V256c0-17.6,14.4-32,32-32h224c17.6,0,32,14.4,32,32V432z"/>
</svg>
