<?xml version="1.0" encoding="utf-8"?>
<!-- Generator: Adobe Illustrator 24.0.1, SVG Export Plug-In . SVG Version: 6.00 Build 0)  -->
<svg version="1.1" id="Layer_1" xmlns="http://www.w3.org/2000/svg" xmlns:xlink="http://www.w3.org/1999/xlink" x="0px" y="0px"
	 viewBox="0 0 512 512" style="enable-background:new 0 0 512 512;" xml:space="preserve">
<title>ionicons-v5-o</title>
<g>
	<path d="M424,80H88c-30.9,0-56,25.1-56,56v240c0,30.9,25.1,56,56,56h336c30.9,0,56-25.1,56-56V136C480,105.1,454.9,80,424,80z
		 M448,376c0,13.2-10.8,24-24,24H88c-13.2,0-24-10.8-24-24V136c0-13.2,10.8-24,24-24h336c13.2,0,24,10.8,24,24V376z"/>
	<path d="M390.2,147.4L256,251.7L121.8,147.4c-7-5.4-17-4.2-22.5,2.8c-5.4,7-4.2,17,2.8,22.5l144,112c2.9,2.2,6.4,3.4,9.8,3.4
		c3.5,0,6.9-1.1,9.8-3.4l144-112c7-5.4,8.2-15.5,2.8-22.5C407.2,143.2,397.2,141.9,390.2,147.4z"/>
</g>
</svg>
