<?xml version="1.0" encoding="utf-8"?>
<!-- Generator: Adobe Illustrator 24.0.1, SVG Export Plug-In . SVG Version: 6.00 Build 0)  -->
<svg version="1.1" id="Layer_1" xmlns="http://www.w3.org/2000/svg" xmlns:xlink="http://www.w3.org/1999/xlink" x="0px" y="0px"
	 viewBox="0 0 512 512" style="enable-background:new 0 0 512 512;" xml:space="preserve">
<title>ionicons-v5-j</title>
<g>
	<path d="M88,176h336c13.3,0,24-10.7,24-24s-10.7-24-24-24H88c-13.3,0-24,10.7-24,24S74.7,176,88,176z"/>
	<path d="M424,232H88c-13.3,0-24,10.7-24,24s10.7,24,24,24h336c13.3,0,24-10.7,24-24S437.3,232,424,232z"/>
	<path d="M424,336H88c-13.3,0-24,10.7-24,24s10.7,24,24,24h336c13.3,0,24-10.7,24-24S437.3,336,424,336z"/>
</g>
</svg>
