<?xml version="1.0" encoding="utf-8"?>
<!-- Generator: Adobe Illustrator 24.0.1, SVG Export Plug-In . SVG Version: 6.00 Build 0)  -->
<svg version="1.1" id="Layer_1" xmlns="http://www.w3.org/2000/svg" xmlns:xlink="http://www.w3.org/1999/xlink" x="0px" y="0px"
	 viewBox="0 0 512 512" style="enable-background:new 0 0 512 512;" xml:space="preserve">
<title>ionicons-v5-q</title>
<g>
	<path d="M408,48C408,48,408,48,408,48H104c-39.6,0.1-71.8,32.4-72,72v192c0.1,39.6,32.4,71.8,72,72h24v64c0,6.2,3.6,11.9,9.2,14.5
		c2.2,1,4.5,1.5,6.8,1.5c3.7,0,7.3-1.3,10.2-3.7l91.5-76.3H408c39.6-0.1,71.8-32.4,72-72V120C479.9,80.4,447.6,48.1,408,48z
		 M448,312c-0.1,22-18,40-40,40H242.9c-5.6,0-11.1,2-15.4,5.6L160,413.8V368c0-8.8-7.2-16-16-16h-40c-22-0.1-40-18-40-40V120
		c0.1-22,18-40,40-40h304c22,0.1,40,18,40,40V312z"/>
	<circle cx="160" cy="216" r="32"/>
	<circle cx="256" cy="216" r="32"/>
	<circle cx="352" cy="216" r="32"/>
</g>
</svg>
