<?xml version="1.0" encoding="utf-8"?>
<!-- Generator: Adobe Illustrator 24.0.1, SVG Export Plug-In . SVG Version: 6.00 Build 0)  -->
<svg version="1.1" id="Layer_1" xmlns="http://www.w3.org/2000/svg" xmlns:xlink="http://www.w3.org/1999/xlink" x="0px" y="0px"
	 viewBox="0 0 512 512" style="enable-background:new 0 0 512 512;" xml:space="preserve">
<title>ionicons-v5-l</title>
<g>
	<path d="M270.6,354.1H117.2c-2.5,0-4.9,0.6-7.1,1.7c-5.3,2.6-8.9,8.1-8.9,14.3c0,8.8,7.2,16,16,16h153.4c8.8,0,16-7.2,16-16
		C286.6,361.2,279.5,354.1,270.6,354.1z"/>
	<path d="M301.3,56.7h-12.6c-4.4-18.5-21.1-32.3-41-32.3H140c-19.9,0-36.5,13.8-41,32.3H86.5c-34.2,0-62,27.8-62,62v306.9
		c0,34.2,27.8,62,62,62h214.8c34.2,0,62-27.8,62-62V118.7C363.4,84.5,335.5,56.7,301.3,56.7z M129.9,66.5c0-4.8,3.3-8.7,7.7-9.8
		c0.8-0.2,1.6-0.3,2.4-0.3h107.7c0.8,0,1.7,0.1,2.4,0.3c4.4,1.1,7.7,5.1,7.7,9.8v11.7c0,5.6-4.5,10.1-10.1,10.1H140
		c-5.6,0-10.1-4.5-10.1-10.1V66.5z M301.4,455.6H86.5c-16.6,0-30-13.5-30-30V118.7c0-16.5,13.5-30,30-30h12.7
		c4.6,18.2,21.2,31.7,40.8,31.7h107.7c19.6,0,36.2-13.5,40.8-31.7h12.7c16.6,0,30,13.5,30,30v68.8h0.1v238.1h0.1
		C331.4,442.2,317.9,455.6,301.4,455.6z"/>
	<path d="M270.6,256.1H117.2c-8.8,0-16,7.2-16,16s7.2,16,16,16h153.4c8.8,0,16-7.2,16-16C286.6,263.3,279.5,256.1,270.6,256.1z"/>
	<path d="M270.6,158.2H117.2c-8.8,0-16,7.2-16,16c0,8.8,7.2,16,16,16h153.4c8.8,0,16-7.2,16-16C286.6,165.4,279.5,158.2,270.6,158.2
		z"/>
	<polygon points="407.7,434 447.7,481.5 487.5,434 487.5,153.8 407.7,153.9 	"/>
	<path d="M472.5,62.8h-49.8c-8.4,0-15.1,8-15.1,17.9V127h79.9V80.7C487.5,70.8,480.8,62.8,472.5,62.8z"/>
</g>
</svg>
