<?xml version="1.0" encoding="utf-8"?>
<!-- Generator: Adobe Illustrator 24.0.1, SVG Export Plug-In . SVG Version: 6.00 Build 0)  -->
<svg version="1.1" id="Layer_1" xmlns="http://www.w3.org/2000/svg" xmlns:xlink="http://www.w3.org/1999/xlink" x="0px" y="0px"
	 viewBox="0 0 512 512" style="enable-background:new 0 0 512 512;" xml:space="preserve">
<title>ionicons-v5-j</title>
<g>
	<path d="M256,256c52.8,0,99.4-49.7,104-110.8c0,0,0,0,0,0c2.3-30.7-7.4-59.3-27.1-80.6C313.3,43.6,286,32,256,32
		c-30.2,0-57.6,11.5-77,32.4c-19.6,21.1-29.2,49.8-27,80.8C156.5,206.3,203.1,256,256,256z M202.4,86.2C215.7,71.9,234.8,64,256,64
		c21,0,40,7.9,53.4,22.4c13.6,14.7,20.3,34.7,18.7,56.5v0c-3.3,44-36.3,81.2-72,81.2c-35.8,0-68.8-37.2-72-81.2
		C182.4,120.8,188.9,100.7,202.4,86.2z"/>
	<path d="M463.4,439.8c-8.4-46.8-34.8-86.1-76.2-113.7c-36.8-24.5-83.4-38-131.2-38c-47.8,0-94.4,13.5-131.2,38
		c-41.4,27.6-67.8,66.9-76.2,113.7c-1.9,10.7,0.7,21.3,7.2,29.1C61.8,476,70.4,480,80,480h352c9.6,0,18.2-4,24.2-11.1
		C462.7,461.1,465.3,450.5,463.4,439.8z M431.8,448H80.2c-0.2-0.5-0.3-1.3-0.1-2.6C95.6,359.3,182.2,320,256,320
		c73.8,0,160.4,39.3,175.9,125.4C432.1,446.7,432,447.5,431.8,448z"/>
</g>
</svg>
