<?xml version="1.0" encoding="utf-8"?>
<!-- Generator: Adobe Illustrator 24.0.1, SVG Export Plug-In . SVG Version: 6.00 Build 0)  -->
<svg version="1.1" id="Layer_1" xmlns="http://www.w3.org/2000/svg" xmlns:xlink="http://www.w3.org/1999/xlink" x="0px" y="0px"
	 viewBox="0 0 512 512" style="enable-background:new 0 0 512 512;" xml:space="preserve">
<title>ionicons-v5-g</title>
<path d="M160.1,216c25.7,54.5,76.5,107.2,135.8,136.1c1.1,0.5,2.5,0.2,3.2-0.7c7.7-9.3,15.4-18.8,23.1-28.2
	c4.4-5.4,8.8-10.8,13.2-16.2c8.9-10.6,21-13.5,33.7-8.1c31.1,13.3,62.1,26.6,93.1,39.9c12.7,5.4,19.2,18.2,16.1,31.7
	c-6.7,29.1-13.4,58.2-20.2,87.3c-3.1,13.3-13.4,21.5-27,21.4c-104.1-0.7-194.7-36.1-271.1-106.6C95.5,312.8,55.6,239.1,39.3,152.6
	c-4.4-23.2-6.5-46.7-6.4-70.3c0.1-13.7,9.5-25.6,22.9-28.8c29-6.9,58.1-13.6,87.2-20.1c11.8-2.6,24.4,3.5,29.3,14.6
	c14.1,32.2,28,64.6,41.7,97c4.6,11,1,23.3-8.4,31c-14.7,12.1-29.4,24.1-44.1,36.1c-0.2,0.2-0.4,0.4-0.6,0.5
	C159.9,213.6,159.6,214.9,160.1,216z M61.2,83.3C61,289.7,235.3,453.3,428.8,450.7c1.2,0,2.3-0.9,2.5-2.1l0,0
	c6.3-27,12.5-53.9,18.8-80.9c0.7-2.8-0.4-3.8-2.8-4.8c-28.8-12.3-57.6-24.6-86.3-37c-2.8-1.2-4.3-0.8-6.1,1.5
	c-8.2,10.3-16.6,20.5-25,30.7c-7.6,9.3-15.3,18.6-23.1,28.2c-0.8,1-2.2,1.3-3.3,0.7c-8-4-15.8-7.8-23.5-11.9
	c-34.5-18.3-65.9-40.6-92.4-69.6c-26.2-28.7-45.8-61.6-62.4-96.4c-1.2-2.4-0.4-3.5,1.4-5c19.2-15.5,38.2-31.2,57.4-46.7
	c2.5-2,3.2-3.6,1.8-6.8c-12.4-28.4-24.5-57-36.7-85.5c-0.3-0.7-0.6-1.3-0.9-2c-0.5-1.1-1.8-1.8-3-1.5c-27.5,6.4-54.6,12.6-81.9,18.9
	C62.1,81,61.2,82.1,61.2,83.3z"/>
</svg>
