<?xml version="1.0" encoding="utf-8"?>
<!-- Generator: Adobe Illustrator 24.0.1, SVG Export Plug-In . SVG Version: 6.00 Build 0)  -->
<svg version="1.1" id="Layer_1" xmlns="http://www.w3.org/2000/svg" xmlns:xlink="http://www.w3.org/1999/xlink" x="0px" y="0px"
	 viewBox="0 0 512 512" style="enable-background:new 0 0 512 512;" xml:space="preserve">
<title>ionicons-v5-k</title>
<g>
	<path d="M301.3,40.5H181.2H86.5c-34.2,0-62,27.8-62,62v186.8v120.1c0,34.2,27.8,62,62,62h120.1h94.7c34.2,0,62-27.8,62-62V222.6
		v-120C363.4,68.4,335.5,40.5,301.3,40.5z M331.4,193.9v32v183.5c0,16.6-13.5,30-30,30h-146H86.5c-16.6,0-30-13.5-30-30v-68.8v-238
		c0-16.5,13.5-30,30-30h91.4h32h22.6h68.8c16.6,0,30,13.5,30,30v68.8h0.1V193.9z"/>
	<path d="M270.6,239.9H117.2c-8.8,0-16,7.2-16,16c0,8.8,7.2,16,16,16h153.4c8.8,0,16-7.2,16-16C286.6,247.1,279.5,239.9,270.6,239.9
		z"/>
	<path d="M270.6,142.1H117.2c-8.8,0-16,7.2-16,16c0,8.8,7.2,16,16,16h153.4c8.8,0,16-7.2,16-16C286.6,149.3,279.5,142.1,270.6,142.1
		z"/>
	<path d="M270.6,338H117.2c-2.5,0-4.9,0.6-7.1,1.7c-5.3,2.6-8.9,8.1-8.9,14.3c0,8.8,7.2,16,16,16h153.4c8.8,0,16-7.2,16-16
		C286.6,345.1,279.5,338,270.6,338z"/>
	<polygon points="407.7,417.9 447.7,465.4 487.5,417.9 487.5,137.6 407.7,137.8 	"/>
	<path d="M472.5,46.7h-49.8c-8.4,0-15.1,8-15.1,17.9v46.3h79.9V64.6C487.5,54.7,480.8,46.7,472.5,46.7z"/>
</g>
</svg>
