<?xml version="1.0" encoding="utf-8"?>
<!-- Generator: Adobe Illustrator 24.0.1, SVG Export Plug-In . SVG Version: 6.00 Build 0)  -->
<svg version="1.1" id="Layer_1" xmlns="http://www.w3.org/2000/svg" xmlns:xlink="http://www.w3.org/1999/xlink" x="0px" y="0px"
	 viewBox="0 0 512 512" style="enable-background:new 0 0 512 512;" xml:space="preserve">
<title>ionicons-v5-l</title>
<g>
	<path d="M464,64H48c-17.6,0-32,14.4-32,32v224c0,17.6,14.4,32,32,32h416c17.6,0,32-14.4,32-32V96C496,78.4,481.6,64,464,64z
		 M385.3,320H126.7c-6.8-40.1-38.5-71.9-78.7-78.7v-66.7c40.1-6.8,71.9-38.5,78.7-78.7h258.7c6.8,40.1,38.5,71.9,78.7,78.7l0,66.7
		C423.9,248.1,392.1,279.9,385.3,320z M464,142c-22.5-5.8-40.2-23.5-46-46h46L464,142z M94,96c-5.8,22.5-23.5,40.2-46,46V96H94z
		 M48,274c22.5,5.8,40.2,23.5,46,46H48V274z M464,320h-46c5.8-22.5,23.5-40.2,46-46L464,320C464,320,464,320,464,320z"/>
	<path d="M448,368H64c-8.8,0-16,7.2-16,16s7.2,16,16,16h384c8.8,0,16-7.2,16-16S456.8,368,448,368z"/>
	<path d="M416,416H96c-8.8,0-16,7.2-16,16s7.2,16,16,16h320c8.8,0,16-7.2,16-16S424.8,416,416,416z"/>
	<path d="M256,112c-52.9,0-96,43.1-96,96s43.1,96,96,96s96-43.1,96-96S308.9,112,256,112z M256,272c-35.3,0-64-28.7-64-64
		s28.7-64,64-64c35.3,0,64,28.7,64,64S291.3,272,256,272z"/>
</g>
</svg>
