<?xml version="1.0" encoding="utf-8"?>
<!-- Generator: Adobe Illustrator 24.0.1, SVG Export Plug-In . SVG Version: 6.00 Build 0)  -->
<svg version="1.1" id="Layer_1" xmlns="http://www.w3.org/2000/svg" xmlns:xlink="http://www.w3.org/1999/xlink" x="0px" y="0px"
	 viewBox="0 0 512 512" style="enable-background:new 0 0 512 512;" xml:space="preserve">
<title>ionicons-v5-s</title>
<g>
	<path d="M346.5,163.9c-6.7-5.8-16.8-5.1-22.6,1.6l-99.7,115.1l-37-36.3c-6.3-6.2-16.4-6.1-22.6,0.2c-6.2,6.3-6.1,16.4,0.2,22.6
		l49.2,48.2c3,2.9,7,4.6,11.2,4.6c0.2,0,0.4,0,0.7,0c4.4-0.2,8.6-2.2,11.4-5.5l110.8-128C353.9,179.8,353.2,169.7,346.5,163.9z"/>
	<path d="M479.1,111.4c-0.5-7.4-5.9-13.4-13.1-14.7c-86.5-15.5-122.6-26.7-203.3-63.2c-4.2-1.9-9-1.9-13.2,0
		C168.7,69.9,132.6,81.1,46.1,96.6c-7.3,1.3-12.7,7.4-13.1,14.7c-3.9,61.1,4.4,118.1,24.4,169.2c16.3,41.5,40.4,79.4,71.6,112.5
		c53.5,56.7,110.2,81.4,121.1,85.7c1.9,0.8,3.9,1.2,6,1.2c2,0,4.1-0.4,6-1.2c10.8-4.4,67.6-29,121.1-85.7
		c31.2-33.1,55.3-71,71.6-112.5C474.7,229.4,482.9,172.5,479.1,111.4z M359.8,371.2c-42.2,44.8-87.3,67.9-103.8,75.4
		c-16.5-7.5-61.5-30.6-103.8-75.4c-61.8-65.6-91.4-148.1-88-245.3c78.6-14.6,116.5-26.6,191.7-60.3c75.3,33.7,113.1,45.7,191.7,60.3
		C451.2,223.1,421.6,305.6,359.8,371.2z"/>
</g>
</svg>
