<?xml version="1.0" encoding="utf-8"?>
<!-- Generator: Adobe Illustrator 24.0.1, SVG Export Plug-In . SVG Version: 6.00 Build 0)  -->
<svg version="1.1" id="Layer_1" xmlns="http://www.w3.org/2000/svg" xmlns:xlink="http://www.w3.org/1999/xlink" x="0px" y="0px"
	 viewBox="0 0 512 512" style="enable-background:new 0 0 512 512;" xml:space="preserve">
<title>ionicons-v5-e</title>
<path d="M495.3,203.3c-2.1-6.7-8.3-11.3-15.3-11.3H319.6L271.2,43.1C269.1,36.5,262.9,32,256,32c-6.9,0-13.1,4.5-15.2,11.1
	L192.4,192H32c-7,0-13.2,4.6-15.3,11.3c-2.1,6.7,0.5,14,6.2,17.9l130,89.2l-50.1,148.5c-2.2,6.6,0.1,13.9,5.7,18s13.2,4.2,18.9,0.1
	L256,383.8L384.6,477c2.8,2,6.1,3,9.4,3c3.3,0,6.7-1,9.5-3.1c5.6-4.1,7.9-11.4,5.7-18L359,310.4l130-89.2
	C494.8,217.2,497.4,210,495.3,203.3z M331,290.8c-5.9,4-8.4,11.5-6.1,18.3l38,112.5L265.4,351c-2.8-2-6.1-3-9.4-3V99.8l36.8,113.2
	c2.1,6.6,8.3,11.1,15.2,11.1h120.4L331,290.8z"/>
</svg>
