<?xml version="1.0" encoding="utf-8"?>
<!-- Generator: Adobe Illustrator 24.0.1, SVG Export Plug-In . SVG Version: 6.00 Build 0)  -->
<svg version="1.1" id="Layer_1" xmlns="http://www.w3.org/2000/svg" xmlns:xlink="http://www.w3.org/1999/xlink" x="0px" y="0px"
	 viewBox="0 0 512 512" style="enable-background:new 0 0 512 512;" xml:space="preserve">
<title>ionicons-v5-e</title>
<g>
	<path d="M256,48C141.3,48,48,141.3,48,256s93.3,208,208,208s208-93.3,208-208S370.7,48,256,48z M256,432c-97,0-176-79-176-176
		S159,80,256,80s176,79,176,176S353,432,256,432z"/>
	<path d="M362.3,163.7c-6.8-5.7-16.9-4.8-22.5,2L217.2,311.6l-45.3-50.3c-5.9-6.6-16-7.1-22.6-1.2c-6.6,5.9-7.1,16-1.2,22.6l57.6,64
		c3,3.4,7.4,5.3,11.9,5.3c0.1,0,0.2,0,0.3,0c4.6-0.1,9-2.2,12-5.7l134.4-160C369.9,179.5,369.1,169.4,362.3,163.7z"/>
</g>
</svg>
