<?xml version="1.0" encoding="utf-8"?>
<!-- Generator: Adobe Illustrator 24.0.1, SVG Export Plug-In . SVG Version: 6.00 Build 0)  -->
<svg version="1.1" id="Layer_1" xmlns="http://www.w3.org/2000/svg" xmlns:xlink="http://www.w3.org/1999/xlink" x="0px" y="0px"
	 viewBox="0 0 512 512" style="enable-background:new 0 0 512 512;" xml:space="preserve">
<title>ionicons-v5-m</title>
<path d="M503.6,126.2l-0.1-0.2c-4.2-8.3-14.3-11.7-22.6-7.5c-1.6,0.8-3.1,1.8-4.4,3.2l-51.1,51.1c-4.3,4.3-11.4,4.3-15.7,0
	l-22.5-22.5c-4.3-4.3-4.3-11.4,0-15.7l50.9-50.9c3.2-3.2,4.9-7.4,4.9-11.9c0-4.5-1.8-8.7-5-12c-1.5-1.5-3.2-2.7-5.2-3.5
	c-39.7-17-89.1-7.4-120,23.3c-26.8,26.6-34.8,68-22,113.7c1.1,4-0.1,8.2-3.2,11.1l-19.5,18.2c-11.3-11-18.2-17.7-22.4-21.8
	c-6.2-6-14.1-9.3-22.3-9.7c-0.1-0.1-0.1-0.2-0.2-0.2c-0.2-0.2-0.4-0.4-0.6-0.6c-32-32-31.8-36.3-31.4-43.4
	c0.8-15.5,5.2-25.4,14.7-32.9c5.6-4.4,18.5-9.7,29.5-10.6c5.1-0.4,10.2-0.1,15.2,0.9c2.4,0.6,4.8,1.3,7.2,2.2
	c6.6,2.4,14.1,0.2,18.3-5.4c4.2-5.7,4.3-13.4,0.1-19.1c-3.6-4.9-7.7-9.5-12.1-13.7c-0.1-0.1-0.2-0.2-0.3-0.3
	c-8.1-7.4-29.3-19.8-57-19.8c0,0-0.1,0-0.1,0c-15.9,0-31.5,3-46.2,9c-40.3,16.2-65.9,38.9-75.2,47.9c-7.7,7.6-14.8,15.8-21.3,24.3
	c-0.1,0.1-0.1,0.2-0.2,0.3c-4.9,6.8-5.3,14.2-5.1,19.7c-2.6-1.1-5.4-1.7-8.3-1.7c-5.4,0-10.8,2.1-14.7,5.9L6.2,182.1
	c-0.1,0.1-0.3,0.3-0.4,0.4c-7.7,8.1-7.7,20.7,0,28.8c0.1,0.1,0.3,0.3,0.4,0.4l47.6,46.4c0,0,0.1,0.1,0.1,0.1c3.9,3.7,9,5.8,14.4,5.8
	c0,0,0.1,0,0.1,0c5.4,0,10.7-2.2,14.6-6l29.3-28.6c0.2-0.1,0.3-0.3,0.4-0.4c3.8-4,5.9-9.2,5.8-14.7c-0.1-5.3-2.2-10.3-5.9-14.1
	c1.8-0.5,3.7-0.7,5.6-0.5c1,0.1,5.4,0.8,11.7,4.6c5.9,3.6,19.1,12.9,41.7,35.5c-0.3,9.2,3.2,18.4,10.1,25.3c0,0,0.1,0.1,0.1,0.1
	c1.6,1.5,3.4,3.3,5.5,5.4c3.6,3.5,8.1,7.9,14.2,13.9l-86.8,80.7c-23.2,20.9-25.1,56.8-4.3,80c11.2,12.5,26.7,18.9,42.3,18.9
	c13.5,0,27-4.8,37.8-14.4c1.5-1.3,3-2.8,4.3-4.3l80.3-85.8c36.1,38,72.8,77.7,87.1,94.2c0,0.1,0.1,0.1,0.1,0.2
	c0.3,0.4,0.7,0.7,1,1.1c5.9,6,13.7,9,21.5,9c7.6,0,15.1-2.8,21-8.5c0,0,0.1-0.1,0.1-0.1l33.4-33.4c0.7-0.7,1.3-1.4,1.9-2.1
	c5-6.1,7.3-13.7,6.6-21.6s-4.5-14.9-10.5-19.9c-17.6-14.7-60.4-53.5-97.6-87.9L357,272c2.8-3,7-4.2,10.9-3.1c45,12,86,4,112.4-22
	c15.2-15,25.8-36.2,29.9-59.7C514,165,511.6,142.7,503.6,126.2z M121.6,167.8c0,0-0.1,0-0.1,0c-9.7-1-19.2,1.1-27.7,5.8
	c-2.3,1.3-4.4,2.9-6.2,4.7c0,0-0.1,0.1-0.1,0.1c-5.6,5.8-8.6,13.4-8.5,21.5c0.1,4.9,1.3,9.6,3.6,13.7l-14.3,13.9l-31.5-30.7
	l15.1-14.7c3.7,1.3,7.7,1.8,11.8,1.3c8.1-0.9,14.9-3.8,19.7-8.4c0,0,0.1-0.1,0.1-0.1c8.5-8.2,7.7-18.9,7.3-24.7
	c-0.1-0.9-0.2-2.2-0.2-3.1c5.3-6.8,11-13.4,17.1-19.4c7.8-7.7,29.7-27,64.7-41c9-3.6,18.4-5.8,28-6.4c-5.4,2.5-10.3,5.4-14.3,8.5
	c-16.9,13.3-25.6,31.8-26.9,56.5c-1,20.5,6.9,33,33.7,60.4l-5.2,5.1c-20.1-19.4-33.4-29.1-41.2-33.8
	C135.4,170.1,126.1,168.3,121.6,167.8z M209.7,247.7c-2.1-2.1-3.9-3.8-5.5-5.4c-0.5-0.6-0.7-1.3-0.6-2.1c0.1-0.1,0.2-0.2,0.3-0.2
	l17-16.8c0.8-0.3,1.7-0.2,2.3,0.5c4.1,4,10.7,10.4,21.3,20.7L225,262.6C218.3,256.1,213.5,251.4,209.7,247.7z M414.8,401.3
	L385,431.1c-15.7-18-52.3-57.5-87.9-95l20.8-22.2C354,347.4,395.5,385,414.8,401.3z M457.8,224.1c-25.7,25.4-65.7,18.2-81.7,13.9
	c-15.4-4.1-31.8,0.6-42.6,12.2L171.4,423.5l-0.2,0.3c-0.6,0.7-1.3,1.3-1.9,1.9c-10.2,9.1-25.9,8.2-35-1.9c-9.1-10.2-8.2-25.9,1.9-35
	l141.4-131.4c0.6-0.5,1.2-1,1.8-1.5c0.2-0.2,0.3-0.4,0.5-0.6l29.5-27.4c11.9-11,16.6-27.6,12.2-43.2c-4.5-16.1-12.3-56.5,13.7-82.3
	c14.5-14.4,35.5-22.3,56-22.3c1.7,0,3.4,0.1,5,0.2L364.5,112c-16.7,16.8-16.7,44.1,0,60.9l22.5,22.5c16.8,16.7,44.1,16.7,60.9,0
	l32-32C480.7,184.1,473.5,208.7,457.8,224.1z"/>
</svg>
