<?xml version="1.0" encoding="utf-8"?>
<!-- Generator: Adobe Illustrator 24.0.1, SVG Export Plug-In . SVG Version: 6.00 Build 0)  -->
<svg version="1.1" id="Layer_1" xmlns="http://www.w3.org/2000/svg" xmlns:xlink="http://www.w3.org/1999/xlink" x="0px" y="0px"
	 viewBox="0 0 512 512" style="enable-background:new 0 0 512 512;" xml:space="preserve">
<title>ionicons-v5-f</title>
<path d="M384,336c-18.1,0-34.5,7.6-46.1,19.7l-148-83.3c1.4-5.2,2.1-10.8,2.1-16.4c0-5.7-0.8-11.2-2.1-16.4l148-83.3
	c11.7,12.1,28,19.7,46.1,19.7c35.3,0,64-28.7,64-64s-28.7-64-64-64s-64,28.7-64,64c0,5.7,0.8,11.2,2.1,16.4l-148,83.3
	c-11.7-12.1-28-19.7-46.1-19.7c-35.3,0-64,28.7-64,64c0,35.3,28.7,64,64,64c18.1,0,34.5-7.6,46.1-19.7l148,83.3
	c-1.4,5.2-2.1,10.8-2.1,16.4c0,35.3,28.7,64,64,64s64-28.7,64-64S419.3,336,384,336z M384,80c17.6,0,32,14.4,32,32s-14.4,32-32,32
	s-32-14.4-32-32S366.4,80,384,80z M128,288c-17.6,0-32-14.4-32-32c0-17.6,14.4-32,32-32s32,14.4,32,32C160,273.6,145.6,288,128,288z
	 M384,432c-17.6,0-32-14.4-32-32s14.4-32,32-32s32,14.4,32,32S401.6,432,384,432z"/>
</svg>
