<?xml version="1.0" encoding="utf-8"?>
<!-- Generator: Adobe Illustrator 24.0.1, SVG Export Plug-In . SVG Version: 6.00 Build 0)  -->
<svg version="1.1" id="Layer_1" xmlns="http://www.w3.org/2000/svg" xmlns:xlink="http://www.w3.org/1999/xlink" x="0px" y="0px"
	 viewBox="0 0 512 512" style="enable-background:new 0 0 512 512;" xml:space="preserve">
<title>ionicons-v5-f</title>
<g>
	<path d="M424,80H232c-30.9,0-56,25.1-56,56v40c0,8.8,7.2,16,16,16s16-7.2,16-16v-40c0-13.2,10.8-24,24-24h192c13.2,0,24,10.8,24,24
		v240c0,13.2-10.8,24-24,24H232c-13.2,0-24-10.8-24-24v-40c0-8.8-7.2-16-16-16s-16,7.2-16,16v40c0,30.9,25.1,56,56,56h192
		c30.9,0,56-25.1,56-56V136C480,105.1,454.9,80,424,80z"/>
	<path d="M86.6,272H321c8.8,0,16-7.2,16-16s-7.2-16-16-16H86.6l52.7-52.7c6.2-6.2,6.2-16.4,0-22.6c-6.2-6.2-16.4-6.2-22.6,0l-80,80
		c-0.4,0.4-0.7,0.8-1.1,1.2c-0.1,0.2-0.3,0.4-0.4,0.6c-0.2,0.2-0.4,0.5-0.5,0.7c-0.2,0.2-0.3,0.5-0.4,0.7c-0.1,0.2-0.3,0.4-0.4,0.7
		c-0.1,0.2-0.2,0.5-0.3,0.7c-0.1,0.2-0.2,0.5-0.3,0.7c-0.1,0.2-0.2,0.5-0.3,0.7c-0.1,0.3-0.2,0.5-0.3,0.8c-0.1,0.2-0.1,0.5-0.2,0.7
		c-0.1,0.3-0.1,0.5-0.2,0.8c-0.1,0.3-0.1,0.5-0.1,0.8c0,0.2-0.1,0.5-0.1,0.7c-0.1,0.5-0.1,1-0.1,1.5c0,0,0,0,0,0s0,0,0,0
		c0,0.5,0,1,0.1,1.5c0,0.2,0.1,0.5,0.1,0.7c0,0.3,0.1,0.6,0.1,0.8c0.1,0.3,0.1,0.5,0.2,0.8c0.1,0.2,0.1,0.5,0.2,0.7
		c0.1,0.3,0.2,0.5,0.3,0.8c0.1,0.2,0.2,0.5,0.3,0.7c0.1,0.2,0.2,0.5,0.3,0.7c0.1,0.2,0.2,0.5,0.3,0.7c0.1,0.2,0.3,0.4,0.4,0.7
		c0.1,0.2,0.3,0.5,0.4,0.7c0.2,0.2,0.3,0.5,0.5,0.7c0.1,0.2,0.3,0.4,0.4,0.6c0.3,0.4,0.7,0.8,1.1,1.2l80,80
		c3.1,3.1,7.2,4.7,11.3,4.7s8.2-1.6,11.3-4.7c6.2-6.2,6.2-16.4,0-22.6L86.6,272z"/>
</g>
</svg>
