<?xml version="1.0" encoding="utf-8"?>
<!-- Generator: Adobe Illustrator 24.0.1, SVG Export Plug-In . SVG Version: 6.00 Build 0)  -->
<svg version="1.1" id="Layer_1" xmlns="http://www.w3.org/2000/svg" xmlns:xlink="http://www.w3.org/1999/xlink" x="0px" y="0px"
	 viewBox="0 0 512 512" style="enable-background:new 0 0 512 512;" xml:space="preserve">
<title>ionicons-v5-k</title>
<g>
	<path d="M417.9,187.3L276.7,46.1C267.6,37,255.6,32,242.8,32H144c-35.3,0-64,28.7-64,64v320c0,35.3,28.7,64,64,64h224
		c35.3,0,64-28.7,64-64V221.3c0,0,0,0,0,0C432,208.4,427,196.4,417.9,187.3z M377.4,192H288c-8.8,0-16-7.2-16-16V86.6L377.4,192z
		 M368,448H144c-17.6,0-32-14.4-32-32V96c0-17.6,14.4-32,32-32h96v112c0,26.5,21.5,48,48,48h112v192C400,433.6,385.6,448,368,448z"
		/>
	<path d="M336,272H176c-8.8,0-16,7.2-16,16s7.2,16,16,16h160c8.8,0,16-7.2,16-16S344.8,272,336,272z"/>
	<path d="M336,352H176c-8.8,0-16,7.2-16,16s7.2,16,16,16h160c8.8,0,16-7.2,16-16S344.8,352,336,352z"/>
</g>
</svg>
