<?xml version="1.0" encoding="utf-8"?>
<!-- Generator: Adobe Illustrator 24.0.1, SVG Export Plug-In . SVG Version: 6.00 Build 0)  -->
<svg version="1.1" id="Layer_1" xmlns="http://www.w3.org/2000/svg" xmlns:xlink="http://www.w3.org/1999/xlink" x="0px" y="0px"
	 viewBox="0 0 512 512" style="enable-background:new 0 0 512 512;" xml:space="preserve">
<title>ionicons-v5-m</title>
<path d="M414.4,97.6C372.1,55.3,315.8,32,256,32c-59.8,0-116.1,23.3-158.4,65.6C55.3,139.9,32,196.2,32,256
	c0,59.8,23.3,116.1,65.6,158.4C139.9,456.7,196.2,480,256,480c59.8,0,116.1-23.3,158.4-65.6C456.7,372.1,480,315.8,480,256
	C480,196.2,456.7,139.9,414.4,97.6z M256,448V64c105.9,0,192,86.1,192,192S361.9,448,256,448z"/>
</svg>
