<?xml version="1.0" encoding="utf-8"?>
<!-- Generator: Adobe Illustrator 24.0.1, SVG Export Plug-In . SVG Version: 6.00 Build 0)  -->
<svg version="1.1" id="Layer_1" xmlns="http://www.w3.org/2000/svg" xmlns:xlink="http://www.w3.org/1999/xlink" x="0px" y="0px"
	 viewBox="0 0 512 512" style="enable-background:new 0 0 512 512;" xml:space="preserve">
<title>ionicons-v5-c</title>
<g>
	<path d="M256,48C141.3,48,48,141.3,48,256s93.3,208,208,208s208-93.3,208-208S370.7,48,256,48z M256,432c-97,0-176-79-176-176
		S159,80,256,80s176,79,176,176S353,432,256,432z"/>
	<path d="M352,256h-80V128c0-8.8-7.2-16-16-16c-8.8,0-16,7.2-16,16v144c0,8.8,7.2,16,16,16h96c8.8,0,16-7.2,16-16S360.8,256,352,256
		z"/>
</g>
</svg>
