<?xml version="1.0" encoding="utf-8"?>
<!-- Generator: Adobe Illustrator 24.0.1, SVG Export Plug-In . SVG Version: 6.00 Build 0)  -->
<svg version="1.1" id="Layer_1" xmlns="http://www.w3.org/2000/svg" xmlns:xlink="http://www.w3.org/1999/xlink" x="0px" y="0px"
	 viewBox="0 0 250 250" style="enable-background:new 0 0 250 250;" xml:space="preserve">
<g>
	<circle cx="121.8" cy="35.2" r="21.2"/>
	<path d="M210.1,57.9c-1.7-3.1-4.4-4.6-8-5.4c-9.2-2.1-18.4-4.6-27.5-7c-9.3-2.4-18.6-4.7-27.7-7c-1.5,3.6-2.5,7.1-4.3,10
		c-1.9,3-4.7,5.3-7.1,8c0.8,0.3,1.6,0.6,2.4,0.8c19.3,4.8,38.6,9.7,58,14.5c9.6,2.4,11.4,1.3,14.1-8.4c0-0.1,0-0.1,0.1-0.2
		c0.4-0.6,0.6-1.3,0.6-2v-1C210.7,59.4,210.5,58.6,210.1,57.9z"/>
	<path d="M59.7,160.5c0,4.9,0.2,9.4,0,13.9c-0.4,9.6-1.1,19.2-1.6,28.8c0,3.1,0,6.2,0,9.4c5,1,10,1.9,15.6,3
		c-0.9-2.1-1.4-3.2-1.8-4.2c1.4-1,2.5-1.8,3.8-2.8c-0.7-1.4-1.4-2.8-2.1-4.2c1.4-1.1,2.7-2.1,4-3.1c-0.9-1.5-1.6-2.6-2.4-4
		c1.5-1.1,2.8-2,4-3c-0.8-1.5-1.5-2.9-2.3-4.2c1.5-1,2.7-1.9,4-2.8c-0.8-1.5-1.5-2.8-2.3-4.2c1.4-1.1,2.6-2,4-3
		c-0.8-1.5-1.6-2.8-2.3-4.1c1.5-1.1,2.8-2,4.1-2.9c-0.8-1.4-1.6-2.7-2.4-4.1c1.5-1.1,2.8-2.1,4.1-3c-0.9-1.5-1.6-2.7-2.3-3.9
		c1-1.3,2-2.5,3.3-4.2C77.8,158.8,69.2,159.6,59.7,160.5z"/>
	<path d="M66,38.1c1.5,0.1,3,0.8,4.5,1.1c9.1,2.1,18.3,4.3,27.1,6.3c0-6.9,0-13.5,0-20.4C88.9,23,79.5,20.6,70,18.4
		c-5.5-1.3-9.9,0.9-10.5,6.6c-0.2,1.5-0.9,2.9-1.4,4.3c0,0.6,0,1.1,0,1.7C59.3,34.9,61.6,37.7,66,38.1z"/>
	<path d="M136.6,62.7c-12.9-1-25.8-0.7-38.8-0.9c-1.7,0-3.4,0-5.1,0.4c-9.4,2.2-12.9,9.6-15,17.8c-1.6,6.2-2.4,12.5-3.6,18.8
		c-1.8,9.3-3.6,18.5-5.3,27.5c-2.9,0.7-6.7-2-7.1,2.9c-0.7,8.2-1.4,16.4-1.9,24.6c0,1,1.8,3,2.7,3c7.9-0.5,15.8-1.3,23.8-2
		c2.3-0.2,3.1-1.2,3.3-3.5c0.5-6.8,1.1-13.6,1.6-20.4c0.5-6.5,0.4-6.5-5.8-7.6c2.4-12.1,5-24.1,7.1-36.2c0.8-4.3,2.7-4.6,6.3-3.5
		c0,1.7,0,3.2,0,4.8c0,43.9-0.1,87.8-0.1,131.7c0,3.5,0.5,7.2,1.9,10.3c3.2,7.1,12.2,7.5,15.9,0.7c1.7-3.1,2.6-7,2.7-10.5
		c0.2-19.9,0.1-39.8,0.1-59.7c0-1.5,0-3,0-4.5c2.1,0,3.5,0,5.6,0c0,1.9,0,3.4,0,5c0,19.5-0.1,38.9,0.1,58.4c0,3.5,0.7,7.1,1.9,10.3
		c1.4,3.9,4.7,6,9,5.8c4.2-0.2,6.9-2.7,8.1-6.4c1-3.2,1.6-6.6,1.6-10c0.1-43.8,0.2-87.5,0.1-131.3c0-3.4,0.9-5,4.2-6
		c9.6-2.8,19-5.9,29.7-9.3c-7.3-1.9-13.5-3.6-19.6-5C152.4,66.1,144.6,63.4,136.6,62.7z M83.2,147.5c0,0.4-1.3,1-2,1.1
		c-3.8,0.4-7.6,0.8-11.4,0.8c-1,0-2.4-1.7-2.9-2.9c-0.4-1,0.1-2.5,0.3-3.7c0.8-6.3,0.7-5.9,6.9-4.2c2.7,0.7,5.9-0.8,9.9-1.4
		C85.1,140.2,83.5,143.9,83.2,147.5z"/>
	<path d="M171.3,41.4c2.9,0,6.1-0.2,9.8,0.8c-2.3-7.4-4.3-14.1-6.5-20.7c-1.6-4.7-5.3-6.4-10.1-5c-4.6,1.3-6.7,4.7-5.8,9.4
		C160.1,33.1,161.9,41.3,171.3,41.4z"/>
</g>
<path d="M187.8,223.5c-0.1-0.1-0.3-0.2-0.4-0.4c0.1,0,0.2-0.1,0.3-0.1c0.2,0,0.4,0.1,0.6,0.2C188.1,223.3,187.9,223.4,187.8,223.5z"
	/>
</svg>
