<?xml version="1.0" encoding="utf-8"?>
<!-- Generator: Adobe Illustrator 24.0.1, SVG Export Plug-In . SVG Version: 6.00 Build 0)  -->
<svg version="1.1" id="Layer_1" xmlns="http://www.w3.org/2000/svg" xmlns:xlink="http://www.w3.org/1999/xlink" x="0px" y="0px"
	 viewBox="0 0 250 250" style="enable-background:new 0 0 250 250;" xml:space="preserve">
<style type="text/css">
	.st0{fill:#FFFFFF;}
	.st1{fill:none;}
</style>
<g>
	<path d="M98.9,121.1c-0.8-6.7-1.3-13.2-2.3-19.6c-1-6.9-3.1-13.5-7.1-19.2c-3.8-5.6-8.9-8.9-16-8.7c-8.6,0.3-17.2,0.2-25.8,0
		c-5.5-0.1-10,1.7-13.4,5.8c-2.3,2.8-4.4,6-5.9,9.4c-3.2,7-4.2,14.6-5,22.3c-0.3,3.4-0.4,6.7-0.6,10.1h11.9
		c0.5-4.9,0.8-9.6,1.4-14.3c0.6-4.8,1.6-9.4,3.9-13.7v47.4c-1.1-0.4-2.1-0.8-3-1.2c-0.1,0.1-0.3,0.3-0.4,0.4
		c0.4,0.5,0.7,1.2,1.3,1.5c1.7,1,3.5,1.9,5.3,2.9c2.2,1.2,2.6,2.6,1.5,4.8c-1.7,3.3-3.4,6.6-5.2,9.8c-1.3,2.4-2.8,2.9-5.1,1.6
		c-6.4-3.4-12.8-6.8-19.3-10.2c-2.6-1.4-3-2.7-1.7-5.2c1.3-2.5,2.6-5,4-7.5c0.9-1.7,1.4-3.8,3.7-4.5c0.2-0.1,0.2-0.8,0.2-1.3
		c-0.2-0.2-0.5-0.3-0.7-0.5c-1.1,1-2.5,1.9-3.3,3.2c-1.9,3.1-3.5,6.4-5.1,9.6c-1.9,3.6-1.2,5.8,2.3,7.7c5.8,3.1,11.7,6.1,17.5,9.3
		c2.6,1.4,5.1,2.8,8.3-0.1v19.9h18.7v-43.4h3.5v43.4h18.7V93.3c4.1,8.9,4.7,18.4,5.1,27.8H98.9z"/>
	<path d="M123.4,89.6c-3.5-0.5-6.5,1.4-7.6,4.4c-1.2,3.2,0,6.4,3,8.5c0.5,0.4,1,1,1.3,1.6c0.7,1.4,1.2,2.8,1.8,4.2
		c0.2,0.5,0.4,1.1,0.3,1.6c-0.5,1.5-1.1,2.9-1.6,4.3c-5.1-1.1-8.2,0.2-9.7,3.8c-1.6,3.7-0.2,6.6,4.5,9.8c-0.8,3.3-0.7,3.4-3.7,4.2
		c-1.3,0.4-1.9,0.9-1.9,2.4c0.1,3.7,0,7.4,0,11.1c0,2.8,0,5.6,0,8.5h109.5c0-0.8,0.1-1.6,0.1-2.3c0-5.6-0.1-11.3,0-16.9
		c0-1.7-0.5-2.7-2.2-2.9c-1.8-0.2-2.6-1.2-3.2-2.9c-2.9-8.1-6-16.1-9-24.2c-0.1-0.3-0.1-0.7-0.2-1c2.5-1.3,4-3.1,3.6-5.9
		c-0.2-1.3,0.2-1.9,1.2-2.6c2.8-1.9,3.2-5.7,1-8.2c-2.1-2.4-5.8-2.5-8.1-0.1c-0.4,0.4-0.8,0.8-1.2,1.3c-2.1-1.2-4.4-1.6-6.1-0.1
		c-1.5,1.3-2.3,3.3-3.7,5.4c-1.4-0.2-3.5-0.5-5.5-0.9c-0.4-0.1-1-0.4-1.2-0.8c-1.9-4.1-5.2-5.2-9.3-4.3c-0.2-0.2-0.3-0.3-0.3-0.4
		c-1.9-3.5-4.3-4.8-7.7-4.4c-3.1,0.4-5.3,2.6-5.9,6.3c-0.2,1.3-0.9,1.5-1.9,1.6c-3.2,0.3-6.5,0.6-9.7,1.1c-1.3,0.2-1.9,0-2.6-1.2
		c-1.8-2.9-4.8-3.8-8.1-3c-0.7,0.2-1.8-0.1-2.4-0.6c-3.5-2.7-8-2.2-10.5,1.4C125.3,89.6,124.7,89.8,123.4,89.6z M119.8,101.2
		c-1.9-0.9-2.9-2.5-2.8-5c0.1-2.3,1.6-4.2,3.8-4.9c2.6-0.9,3.7-0.2,4.2,2.5c0.2,0.9,0.6,1.8,0.7,2.3
		C123.6,97.9,121.8,99.5,119.8,101.2z M121.6,103.7c0-3,2.6-5.5,5.6-5.5c3,0,5.5,2.5,5.5,5.6c0,3-2.5,5.5-5.5,5.5
		C124,109.2,121.5,106.8,121.6,103.7z M111.7,120.9c-0.1-3.1,2.3-5.5,5.4-5.6c3.1,0,5.6,2.3,5.7,5.3c0.1,3-2.4,5.6-5.4,5.6
		C114.3,126.3,111.8,123.9,111.7,120.9z M125.7,149.4c-3.8,0-6.9-3.1-6.9-6.9c0-4.1,3.2-7.2,7.2-7.2c3.7,0,6.9,3.2,7,7
		C133,146.2,129.7,149.4,125.7,149.4z M145,133.7c-3.1,0-5.5-2.4-5.6-5.5c0-2.9,2.6-5.6,5.5-5.6c3,0,5.5,2.4,5.5,5.5
		C150.5,131.3,148.1,133.7,145,133.7z M210.2,142.6c0,3.9-3.2,6.9-7.2,6.8c-3.8-0.1-6.9-3.2-6.9-7c0-3.9,3.2-7.1,7.1-7.1
		C207.1,135.3,210.2,138.5,210.2,142.6z M206.5,86.9c2.2,0,4,1.8,4,4c0,2.1-1.8,4-4,4c-2.2,0-4.1-1.8-4-4.1
		C202.5,88.5,204.2,86.9,206.5,86.9z M203.4,95.6c0.2,0.1,0.6,0.4,1,0.4c1.9,0.2,2.7,1.2,2.4,3.1c-0.3,2-2,3.4-4,3.4
		c-1.9,0-3.7-1.4-3.8-3.1c0-0.4,0.4-1,0.7-1.3C200.8,97.3,202,96.6,203.4,95.6z M198,88.9c2.2,0,3.5,1.9,3.6,5.1
		c0,1.4-1.8,2.8-3.7,2.9c-2.3,0-4-1.7-4-4.1C194.1,90.6,195.8,88.9,198,88.9z M178,88.9c3,0,5.5,2.5,5.5,5.5c0,3.2-2.3,5.5-5.4,5.5
		c-3.1,0-5.5-2.4-5.5-5.5C172.5,91.4,175,88.9,178,88.9z M166.7,84.7c2.5-0.9,5.3,0.1,6.4,2.4c0.3,0.6,0.1,1.7-0.2,2.5
		c-0.5,1.3-1.6,2.4-1.8,3.7c-0.2,1.9-1.2,2.1-2.7,2.1c-2.7,0-5-2-5.5-4.6C162.5,88.2,164.1,85.6,166.7,84.7z M172,99.5
		c0.6,0.1,1.3,0.3,1.9,0.6c2.1,1.4,4.3,1.6,6.8,0.9c1.2-0.3,2.6-0.1,3.9,0.1c3.1,0.4,6.2,0.9,9.2,1.4c0.6,0.1,1.4,0.6,1.6,1.1
		c3,8,6,16.1,9,24.2c0,0.1,0,0.1-0.1,0.4c-4.6-0.6-9.2-1.2-13.8-1.8c-12.2-1.6-24.5-2.9-36.8-1.7c-1.5,0.2-2.5-0.1-3.6-1.4
		c-3.3-3.6-9-2.8-11.2,1.5c-0.6,1.3-1.4,1.7-2.7,1.8c-1.9,0.2-3.8,0.5-5.7,0.8c-1.9,0.3-3.8,0.6-6.2,0.9c2.3-6.2,4.6-12.2,6.8-18.2
		c4.4,3,7.3,3.3,10.1,1.2c2.9-2.2,3.4-4.6,1.8-10.2C152.7,100.2,162.2,98.1,172,99.5z M133,107.5c0.6-1.3,1-2.8,1.1-4.2
		c0.1-2.3,0.6-3,3-3c2.4,0,4.6,1.7,5.2,4c0.7,2.5-0.4,5-2.6,6.3c-2.1,1.2-4.6,0.9-6.4-0.7C132.6,109.2,132.5,108.6,133,107.5z
		 M141.1,88.9c2.9-0.1,5.6,2.5,5.7,5.4c0.1,2.8-2.3,5.5-4.9,5.6c-3.5,0.1-6.1-2.2-6.1-5.4C135.7,91.4,138.1,89,141.1,88.9z
		 M128.7,87.9c2.4-1.7,5.3-1.3,7.6,1.3c-2.1,2.4-2.5,5-1.7,7.9c-3,1.3-6.1,0.4-7.5-2.1C125.7,92.6,126.4,89.6,128.7,87.9z"/>
	<path d="M219.1,156.6H109.9v8.3c1.4,0.1,2.6,0.1,4,0.2c0,4,0,7.8,0,11.5c0,3.8,1.5,5.2,5.3,5.2c2.1,0,4.2,0,6.2,0
		c3.9,0,5.4-1.5,5.4-5.4c0-3.8,0-7.5,0-11.3h67.3c0,3.9,0,7.7,0,11.5c0,3.7,1.6,5.2,5.3,5.2c2.2,0,4.3,0,6.5,0
		c3.6,0,5.1-1.5,5.1-5.1c0-3.8,0-7.7,0-11.6c1.5-0.1,2.8-0.2,4.1-0.2V156.6z"/>
	<path d="M61.2,69.3c7.4-0.2,13.8-5,15.9-12.1c0.2-0.8,0.3-1.7,0.4-2.5c-13.8-2.5-17.2-3.8-19.2-7c7.3,3.8,14.9,3.7,22.6,2.7
		c2.2-0.3,4.4-1,6.3-1.9c1.1-0.5,2.4-1.9,2.4-3c0.1-0.9-1.4-2.4-2.4-2.7c-3.6-1.1-7.3-2-11-2.5c-2.3-0.3-4.1-0.7-6.1-2.1
		c-6-4.3-14-3.9-19.9,0.6c-5.8,4.5-8.1,12.3-5.6,19.2C47.3,65,53.8,69.5,61.2,69.3z"/>
	<rect x="86" y="186.3" width="152.7" height="4.2"/>
	<path d="M62.6,205.2c0.1,5.7,4.1,9.6,9.5,9.6c5.2-0.1,9.2-4.4,9.2-10c0-5.6,0-11.3,0-16.9v-4.6H62.5
		C62.5,190.7,62.5,197.9,62.6,205.2z"/>
	<path d="M58.8,183.2H40.4c0,8-0.2,15.8,0.1,23.6c0.1,3.7,2.6,6.2,6.1,7.5c6,2.1,12.1-2,12.4-8.6c0.2-7.3,0.1-14.5,0.1-21.8
		C59,183.7,58.9,183.5,58.8,183.2z"/>
	<path d="M22.7,123.3c0.3,6.3,0.4,12.4,1,18.5c0.3,2.7,3.3,4.4,6.2,4.3c0.8,0,1.7,0.5,2.6,0.6c0.9,0.1,2,0.4,2.6,0
		c0.6-0.3,1.2-1.8,1-2.2c-1.5-1.9-0.5-4-0.6-5.9c-0.2-4.2-0.3-8.4-0.4-12.6c0-0.8,0-1.7,0-2.6H22.7z"/>
	<path d="M86.1,139.1c-0.2,3.7,2.1,6.5,5.5,6.9c3.3,0.4,6.3-2,6.6-5.8c0.3-5.2,0.3-10.4,0.5-15.5c0-1.2-0.4-1.6-1.6-1.6
		c-3,0-6.1,0-9.1,0c-1.2,0-1.6,0.4-1.5,1.6c0.1,2.5,0,5,0,6.6C86.3,134.5,86.2,136.8,86.1,139.1z"/>
	<path d="M157,61.6c3.6,0,6.4-2.6,6.5-6.2c0.1-3.6-2.8-6.6-6.3-6.7c-3.6,0-6.5,2.9-6.5,6.5C150.7,58.7,153.5,61.6,157,61.6z
		 M157.4,50.4c2.6,0.1,4.7,2.3,4.6,5c-0.1,2.6-2.3,4.8-4.9,4.8c-2.7,0-4.9-2.3-4.8-5C152.3,52.4,154.6,50.3,157.4,50.4z"/>
	<path d="M120.8,83.4c3,0,5.5-2.5,5.6-5.5c0-3-2.4-5.5-5.5-5.6c-3.1-0.1-5.7,2.5-5.7,5.6C115.3,80.9,117.8,83.4,120.8,83.4z
		 M120.8,73.7c2.1,0,3.9,1.8,4,4c0,2.2-1.7,4-3.9,4c-2.2,0-4-1.7-4.1-3.8C116.7,75.7,118.6,73.7,120.8,73.7z"/>
	<path d="M143.1,77.6c3,0,5.3-2.4,5.3-5.4c0-3-2.4-5.3-5.4-5.3c-2.9,0-5.3,2.4-5.3,5.4C137.7,75.3,140.1,77.6,143.1,77.6z M143,68.5
		c2.1-0.1,3.8,1.6,3.8,3.7c0,2.1-1.7,3.8-3.8,3.9c-2,0.1-3.8-1.7-3.8-3.8C139.2,70.2,140.9,68.6,143,68.5z"/>
	<path d="M216.8,115.3c2.6,0,4.7-2.1,4.7-4.7c0-2.5-2-4.5-4.6-4.5c-2.6,0-4.7,2.1-4.6,4.7C212.3,113.2,214.4,115.3,216.8,115.3z
		 M217,107.7c1.6,0,2.9,1.4,2.9,3c0,1.7-1.4,3.1-3.1,3c-1.6,0-3-1.4-3-3C213.8,109.1,215.3,107.6,217,107.7z"/>
	<path d="M183.8,85.4c2.5,0.1,4.8-2,4.9-4.5c0.1-2.4-2-4.6-4.4-4.7c-2.6-0.1-4.8,1.9-4.8,4.5C179.3,83.2,181.3,85.3,183.8,85.4z
		 M180.9,80.7c0.2-1.8,1.3-2.8,3-2.9c1.7-0.1,3.1,1.4,3.1,3.1c0,1.7-1.4,3-3.1,3C182.2,83.8,180.7,82.3,180.9,80.7z"/>
	<path d="M156.3,79.1c0.1,2.5,2.1,4.4,4.7,4.4c2.6,0,4.7-2.2,4.6-4.7c-0.1-2.5-2.1-4.4-4.7-4.4C158.3,74.4,156.2,76.5,156.3,79.1z
		 M164,78.9c0,1.7-1.2,3-2.9,3.1c-1.7,0-3.1-1.3-3.1-3.1c0-1.7,1.3-3,2.9-3.1C162.5,75.8,163.9,77.1,164,78.9z"/>
	<path d="M109.8,109.8c2.2,0.1,4-1.6,4.1-3.8c0-2.2-1.7-3.9-3.9-3.9c-2.1,0-3.9,1.6-4,3.7C105.9,107.8,107.7,109.7,109.8,109.8z
		 M107.7,105.7c0.2-0.9,1.5-2.1,2.2-2.1c0.9,0,1.8,1.1,2.7,1.8c0,0.3,0,0.7,0,1c-0.9,0.6-1.8,1.6-2.8,1.7
		C108.4,108.3,107.3,107.1,107.7,105.7z"/>
	<path d="M17.3,147.2c0.2,0.9,1.3,2.1,2.1,2.1c0.9,0.1,1.8-1,2.7-1.6c0-0.4,0-0.7,0-1.1c-0.9-0.6-1.8-1.6-2.7-1.7
		C18,144.6,17,145.8,17.3,147.2z"/>
	<path d="M36,159.4c0.7,0.1,1.6-0.8,2.9-1.5c-1.2-1-1.9-2-2.5-2c-0.8,0.1-1.4,1.1-2.1,1.7C34.8,158.2,35.3,159.3,36,159.4z"/>
	<path d="M24.9,151c-0.1,0.7,0.7,1.5,1.4,2.8c1-1.1,2-1.8,1.9-2.3c-0.1-0.7-0.9-1.6-1.6-1.9C26.3,149.4,25,150.4,24.9,151z"/>
	<path d="M43.5,146.6c-1.1-0.7-1.7-1.5-2.2-1.4c-0.6,0.1-1.1,0.9-1.6,1.4c0.6,0.6,1,1.4,1.7,1.6C41.8,148.3,42.5,147.4,43.5,146.6z"
		/>
	<path d="M20.1,139.1c-0.6,0.1-1,0.9-1.5,1.4c0.6,0.5,1.1,1.4,1.7,1.5c0.5,0.1,1.1-0.8,2-1.6C21.3,139.7,20.6,139,20.1,139.1z"/>
	<path d="M35.1,150.5c0.5,0.5,1,1.3,1.6,1.4c0.6,0,1.2-0.7,2.2-1.4c-1-0.7-1.6-1.6-2.1-1.5C36.1,149.1,35.6,149.9,35.1,150.5z"/>
	<path d="M30.7,152.3c0.5,0.6,1,1.4,1.7,1.6c0.4,0.1,1.1-0.7,2.2-1.5c-1-0.7-1.6-1.5-2.2-1.5C31.8,151,31.2,151.8,30.7,152.3z"/>
	<path d="M174.8,112.7c2.5,0,4.7-2.1,4.7-4.6c0-2.5-2-4.5-4.5-4.6c-2.6-0.1-4.7,2-4.7,4.6C170.3,110.5,172.3,112.6,174.8,112.7z
		 M171.8,108c0.1-1.8,1.2-2.8,3-2.9c1.7-0.1,3.2,1.3,3.2,3c0,1.7-1.4,3.1-3.1,3.1C173.1,111.1,171.7,109.7,171.8,108z"/>
	<path d="M154.9,118.3c2.6-0.1,4.6-2.1,4.5-4.8c-0.1-2.5-2.1-4.4-4.7-4.4c-2.5,0-4.5,2-4.5,4.6C150.3,116.3,152.4,118.4,154.9,118.3
		z M154.8,110.6c1.6,0,3.1,1.5,3.1,3.1c0,1.6-1.4,3-2.9,3c-1.7,0.1-3.2-1.3-3.2-3C151.7,112.1,153.1,110.7,154.8,110.6z"/>
</g>
</svg>
