<?xml version="1.0" encoding="utf-8"?>
<!-- Generator: Adobe Illustrator 24.0.1, SVG Export Plug-In . SVG Version: 6.00 Build 0)  -->
<svg version="1.1" id="Layer_1" xmlns="http://www.w3.org/2000/svg" xmlns:xlink="http://www.w3.org/1999/xlink" x="0px" y="0px"
	 viewBox="0 0 250 250" style="enable-background:new 0 0 250 250;" xml:space="preserve">
<g>
	<path d="M105.6,170.8c0-2.1-0.5-4.5-1.5-6.4c-3.9-6.9-8.1-13.6-12.3-20.3c-0.2-0.4-0.6-1-1-1c-7-0.8-5.7-5.8-5-10.2
		c1.3-8.2,1.3-8.2-7.4-11c-2.4,12.1-4.9,24.2-7.1,36.3c-0.7,3.6,1.1,6.1,5.1,6.2c2.2,0,4.4,0,7.1,0c0,2.6,0,4.5,0,6.4
		c0,19.3,0.2,38.7-0.1,58c-0.1,7,2,12.1,8.5,15c1.7,0,3.5,0,5.2,0c6.4-2.7,8.7-7.4,8.6-14.4C105.5,209.9,105.7,190.4,105.6,170.8z"
		/>
	<path d="M126,168.3c-4.4,3.3-8.8,6.4-14.7,4.1c-0.3,0.7-0.5,1-0.5,1.4c0,18.3,0.2,36.6-0.2,54.9c-0.1,7,1.9,12.2,8.5,15.1
		c1.7,0,3.5,0,5.2,0c6.4-2.7,8.8-7.4,8.7-14.4c-0.3-19.7-0.1-39.4-0.1-59.1c0-1.8,0.2-3.7,0.3-5.4c12.7-1.5,13.7-2.5,10.8-9.9
		C138,159.5,131.9,163.8,126,168.3z"/>
	<path d="M195.9,221.3c-12.4,0-23.9,0-35.7,0c-0.1,1.7-0.3,3.1-0.3,4.4c0.4,15.1-3.1,13.8,12.6,18.1c3.8,0,7.7,0,11.5,0
		c2.1-0.6,4.4-1,6.3-2c2-1.1,5.1-2.6,5.3-4.2C196.3,232.2,195.9,226.7,195.9,221.3z"/>
	<path d="M173,104c0.2,1.4,0.4,1.9,0.4,2.4c0.1,28.3,0.2,56.5,0,84.8c0,1.7-1.7,3.9-3.3,4.8c-7.2,4.1-10.7,10.3-9.4,17.3
		c11.6,0,23.3,0,35.1,0c0.5-8.1-3-13.7-9.8-17c-2.9-1.4-3.6-3.1-3.6-6c0-28.4,0-56.9-0.2-85.3c0-3.3,0.7-5.2,3.9-6.9
		c6.6-3.6,6.4-12.7-0.4-15.9c-3.1-1.4-3.4-3.2-3.4-6c0.1-16.6,0-33.1,0-49.7c0-1.9,0.4-4.1-0.3-5.7c-0.7-1.6-2.7-3.6-4.1-3.6
		c-1.4,0-3.3,2-4.2,3.5c-0.7,1.4-0.3,3.4-0.3,5.1c0,17.8,0.1,35.6,0,53.4c0,1.7-0.6,4.3-1.7,4.9c-5.7,2.7-11.7,4.9-17.4,7.2
		c-8.1-12.8-7.3-30.3-24-37.4c-2.4,6.5-4.7,12.7-6.7,18.9c-0.8,2.4-1.4,5.1-1,7.6c1.5,11,3.3,22,5.1,33c0.2,1.1,0.6,2.4,1.4,3.1
		c3.2,2.9,6.5,5.6,9.9,8.4c-2.1-10.9-4.2-22-6.3-33.1c3,4.5,4.8,9.4,6.8,14.1c2.6,6.4,7,8.3,13.4,6c2.8-1,5.5-2.2,8.2-3.3
		C164.9,107.1,168.9,105.6,173,104z"/>
	<path d="M104.7,131.7c-7.2,7.3-7.4,10.7-1.5,18.8c3,4.1,6,8.1,8.9,12.3c2.1,3,4.3,3.4,7.4,1.1c6.6-5.1,13.4-10,20.2-14.8
		c3.2-2.2,3.5-4.4,1.3-7.4c-2.9-3.9-5.8-7.8-8.7-11.8c-6.3-8.6-9.6-9.4-19.5-4.3c-2-3.7-5.1-7.2-5.7-11.1c-0.7-4.9-2.5-8-6.9-10
		c-7.1-3.3-14-6.8-21.4-10.5c3-4.8,5.6-9.2,8.3-13.5c0.3,0.2,0.7,0.3,1,0.5c-0.8,3.1-1.5,6.2-2.3,9.5c1.6,0.9,3.1,1.7,4.7,2.4
		c0.6,0.3,1.3,0.3,1.7,0.4c5.6-14-1.1-26.1-6.2-40c-3.3,3-6.7,5-8.7,8c-6.9,10.4-13.5,21.1-19.9,31.9c-2.8,4.7-1.4,10.1,3.4,12.6
		c11,5.6,21.8,11.7,33.3,16C99.6,123.8,101.9,127.6,104.7,131.7z"/>
	<path d="M100.1,70.5c0.9,2.3,0.4,6,4.7,5.7c2.9-0.2,5.9-0.1,8.9-0.3c0.5,0,1.1-0.9,1.3-1.5c2.5-6.9,4.9-13.9,7.5-21.1
		c-9.7,0-18.7,0-28.4,0C96.1,59.4,98,65,100.1,70.5z"/>
	<ellipse cx="108.3" cy="27.6" rx="18.6" ry="18.6"/>
</g>
</svg>
