<?xml version="1.0" encoding="utf-8"?>
<!-- Generator: Adobe Illustrator 24.0.1, SVG Export Plug-In . SVG Version: 6.00 Build 0)  -->
<svg version="1.1" id="Layer_1" xmlns="http://www.w3.org/2000/svg" xmlns:xlink="http://www.w3.org/1999/xlink" x="0px" y="0px"
	 viewBox="0 0 250 250" style="enable-background:new 0 0 250 250;" xml:space="preserve">
<style type="text/css">
	.st0{fill:#FFFFFF;}
	.st1{fill:none;}
</style>
<g>
	<path d="M144.7,48.8c0,0,0.1,0.1,0.1,0.1c0.1,0.1,0.2,0.2,0.3,0.3C145,49.1,144.9,49,144.7,48.8z M174.6,64.2
		c-0.9-1.7-1.3-3.9-1.4-5.9c-0.3-4.8-0.1-9.5-0.1-14.2c0-7.2-2.7-13.3-8.2-17.5c-4.6-3.5-9.8-6.5-15.2-8.5
		c-5.7-2.1-11.9-2.8-17.9-4.1c-4.5,0-9.1,0-13.4,0.1c-6.8,1.6-13.7,2.6-20.2,4.9c-15.1,5.4-20.8,13.8-21,29.6
		c-0.1,3.5,0.1,7.1,0,10.7c0,1.4-0.3,2.9-0.9,4.1c-3.7,7.5-2.8,14,2.7,19c6,5.5,12.8,6,20,1.6c7-4.3,14.3-7.6,22.6-8.4
		c11.6-1.1,21.6,3.2,31.1,9.2c6.2,3.9,13.4,2.7,19.1-2.7C176.8,77.3,177.7,70.6,174.6,64.2z M147.2,54.6c-0.1,4.2-3.3,7.2-8.1,7.3
		c-4.7,0.1-9.4,0-14.1,0s-9.4,0.1-14.1,0c-0.6,0-1.2-0.1-1.7-0.2c-3.3-0.6-5.5-2.7-6.1-5.7c-0.1-0.5-0.2-1-0.2-1.5
		c0-0.6,0-1.2,0.1-1.7c0.6-2.9,2.7-5,6-5.6c0.5-0.1,1.1-0.2,1.7-0.2c7.6-0.2,15.1-0.2,22.7-0.1c2,0,4,0.1,6.1,0.1
		c0.6,0,1.1,0.1,1.7,0.2c0.4,0.1,0.7,0.2,1.1,0.3c0.2,0,0.3,0.1,0.5,0.2c0,0,0,0,0.1,0c0.1,0,0.2,0.1,0.3,0.1c0,0,0.1,0,0.1,0.1
		c0.1,0,0.2,0.1,0.3,0.1c0,0,0.1,0.1,0.1,0.1c0.1,0.1,0.2,0.1,0.4,0.2c0.1,0.1,0.2,0.1,0.3,0.2c0.1,0.1,0.2,0.1,0.3,0.2
		c0,0,0.1,0,0.1,0.1c0,0,0.1,0.1,0.2,0.1c0,0,0,0,0,0c0,0,0.1,0.1,0.1,0.1c0.1,0.1,0.2,0.2,0.3,0.3c0.1,0.1,0.2,0.2,0.3,0.3
		c0.1,0.1,0.2,0.2,0.3,0.4c0,0,0,0.1,0,0.1c0.1,0.1,0.1,0.2,0.2,0.2c0,0.1,0.1,0.1,0.1,0.2c0.2,0.3,0.4,0.6,0.5,0.9c0,0,0,0,0,0
		c0.1,0.1,0.1,0.3,0.2,0.4c0,0.1,0.1,0.3,0.1,0.4c0.1,0.2,0.1,0.5,0.2,0.7c0.1,0.5,0.1,1,0.1,1.5V54.6z"/>
	<path class="st0" d="M24.3,220.4c0.5,0.9,1,1.7,1.6,2.4C25.3,222.1,24.8,221.4,24.3,220.4L24.3,220.4z"/>
	<path class="st0" d="M89.3,234.8L89.3,234.8c-0.4-4.7-0.4-9-1.1-13.3c-1.2-7.1-3.5-14.1-4.1-21.3c-0.6-6.7,0.5-13.5,0.7-20.3
		c0.1-3.8,0-7.6,0-11.2c0,0,0.1,0,0.1,0c0,3.7,0.1,7.5,0,11.3c-0.2,6.8-1.3,13.6-0.7,20.3c0.6,7.2,2.9,14.2,4.1,21.3
		C89,225.9,89,230.1,89.3,234.8z"/>
	<path class="st0" d="M225.6,220.3v0.2c-2.3,4.4-6.2,6.8-10.9,7.7c-7,1.4-13.9,3-21,3.8c-14.3,1.6-28.7,2.6-42.9,3.8h-0.2
		c14.3-1.3,28.7-2.3,43-3.8c7.1-0.8,14-2.4,21-3.8C219.4,227.3,223.3,224.8,225.6,220.3z"/>
	<path d="M168.6,91.8c3.3,20.5-9.9,53.5-37,58.5c-7.6,1.4-14.9,0.5-21.9-2.7c-21.9-10.2-31.1-38.5-28.3-55.7
		c9.1,3.1,16.7,0.3,24.7-4.7c12.2-7.5,25.3-7.8,37.8,0C151.6,91.9,159.4,95.7,168.6,91.8z"/>
	<path class="st0" d="M156.2,200.7h13.8c-0.8,2.1-1.5,4.1-2.3,6c-0.3,0.9-0.7,1.9-1,2.8c0,0,0,0,0,0.1c-0.4,1-0.7,1.9-1.1,2.8
		c-0.5,1.3-1,2.6-1.4,3.8c0,0.1-0.1,0.2-0.1,0.3c-0.9,2.3-1.7,4.6-2.6,7c0.2,0.1,0.4,0.3,0.6,0.4c0,0,0,0,0,0
		c-0.2-0.1-0.4-0.2-0.7-0.3c2.7-7.4,5.5-14.6,8.5-22.7c0,0,0-0.1,0-0.1H156c7.8-10.7,14.9-20.4,22-30.2c0,0,0,0,0.1,0
		c0.3,0.2,0.5,0.3,0.8,0.4c0,0,0,0,0,0.1c-0.3-0.2-0.6-0.3-0.8-0.4c-5.3,7.2-10.5,14.4-16,21.9c-0.1,0.1-0.2,0.2-0.3,0.4
		C159.9,195.5,158,198.1,156.2,200.7z"/>
	<path class="st0" d="M185.3,191.9C185.3,191.9,185.3,192,185.3,191.9l-13.9,0.1c0,0,0-0.1,0-0.1H185.3z"/>
	<path class="st0" d="M146.9,52.2c-0.8-2.6-2.8-4.4-5.7-5C144.1,47.7,146.2,49.6,146.9,52.2z"/>
	<path class="st0" d="M147.2,54.4c0-0.5,0-1-0.1-1.5C147.2,53.4,147.2,53.9,147.2,54.4z"/>
	<path class="st1" d="M156,200.9c0,0,0-0.1,0.1-0.1c0,0,0-0.1,0.1-0.1h13.8c-0.8,2.1-1.5,4.1-2.3,6c0.7-1.9,1.4-3.9,2.2-5.8H156z"/>
	<path class="st1" d="M178,170.7c-5.3,7.2-10.5,14.4-16,21.9C167.5,185.1,172.8,177.9,178,170.7C178,170.7,178,170.7,178,170.7z"/>
	<path class="st1" d="M171.4,191.9c2.7-7.4,5.1-14.2,7.5-20.8c0,0,0,0,0,0C176.5,177.8,174.1,184.5,171.4,191.9L171.4,191.9z"/>
	<path class="st1" d="M185.3,192c-8.2,11.3-15.8,21.5-23.2,31.9c0,0,0,0.1-0.1,0.1c-0.2-0.1-0.5-0.3-0.7-0.4
		c0.9-2.3,1.8-4.7,2.7-7.1c-0.9,2.3-1.7,4.6-2.6,7c0.2,0.1,0.4,0.3,0.6,0.4C169.5,213.6,177.1,203.3,185.3,192L185.3,192z"/>
	<path d="M224.9,210.8c-1.1-12.2-5.6-23-13.6-32.2C197.6,163,179.6,154,161.1,146c-27.7,23.8-44.9,23.8-72.2,0.1
		c-14,5.7-27.3,12.7-39.3,22.1c-12.6,9.9-21.2,22.3-24,38.3c-0.4,2.4-0.9,4.7-1.4,7v6.8c0,0.1,0.1,0.1,0.1,0.2
		c0.5,0.9,1,1.7,1.6,2.4c0.1,0.1,0.2,0.3,0.4,0.4c0.1,0.1,0.2,0.3,0.4,0.4c0.2,0.2,0.5,0.5,0.7,0.7c3,2.8,7.1,4,11.3,4.7
		c11.2,1.9,22.5,3.5,33.3,5.2c0.6-0.7,1-0.9,1-1.1c0.8-7.5,0.3-15.5,2.7-22.3c4.4-12.4,1.4-24.6,1.5-36.8c0.1-6.6,0.3-6.9,7.7-5.4
		v0.1c0,3.7,0.1,7.5,0,11.2c-0.2,6.8-1.3,13.6-0.7,20.3c0.6,7.2,2.9,14.2,4.1,21.3c0.7,4.3,0.7,8.6,1,13.3h0.1
		c3.5,0.2,6.7,0.3,10.1,0.5l51.2,0.5h0.2c14.2-1.2,28.6-2.2,42.9-3.8c7.1-0.8,14-2.4,21-3.8c4.7-0.9,8.6-3.3,10.9-7.7
		c0-0.1,0.1-0.1,0.1-0.2v-6.8C225.4,212.6,224.9,211.7,224.9,210.8z M178.1,170.6c0.3,0.2,0.6,0.3,0.9,0.4
		c-2.4,6.7-4.8,13.5-7.5,20.9h13.9c-8.2,11.3-15.8,21.7-23.3,32c0,0,0,0,0,0c0,0,0,0,0,0c-0.2-0.1-0.5-0.3-0.6-0.4
		c0.8-2.3,1.7-4.6,2.6-7c0-0.1,0.1-0.2,0.1-0.3c0.5-1.3,1-2.5,1.4-3.8c0.4-0.9,0.7-1.9,1.1-2.8c0,0,0,0,0-0.1c0.4-0.9,0.7-1.8,1-2.8
		c0.8-2,1.5-4,2.3-6h-13.8c1.4-2,2.9-3.9,4.3-5.8c0.5-0.6,0.9-1.3,1.4-1.9c0.1-0.1,0.2-0.3,0.3-0.4c0.7-0.9,1.4-1.9,2.1-2.8
		c1.2-1.6,2.3-3.2,3.5-4.7c3.6-4.9,7-9.6,10.5-14.4C178,170.7,178,170.7,178.1,170.6C178.1,170.6,178.1,170.6,178.1,170.6z"/>
</g>
</svg>
