<?xml version="1.0" encoding="utf-8"?>
<!-- Generator: Adobe Illustrator 24.0.1, SVG Export Plug-In . SVG Version: 6.00 Build 0)  -->
<svg version="1.1" id="Layer_1" xmlns="http://www.w3.org/2000/svg" xmlns:xlink="http://www.w3.org/1999/xlink" x="0px" y="0px"
	 viewBox="0 0 250 250" style="enable-background:new 0 0 250 250;" xml:space="preserve">
<g>
	<path d="M151.4,172.8c-7.9-5.6-15.9-11-23.4-17.1c-2.3-1.8-4.3-5.3-4.6-8.2c-1.1-13.3-1.7-26.7-2.1-40.1c-0.2-5.3-1.8-9.4-6.2-12.3
		c-5.9-3.9-11.6-8-17.5-11.9c-12.9-8.5-19.9-7.4-29.5,4.7c-16,20.1-27.3,42.8-34.5,67.5c-4.3,14.9-2.3,20.6,10.4,29.5
		c6.1,4.3,12.5,8.3,20,13.2c-14.8,0-28.1,0-41.4,0c-2.2,0-4.5,0.1-6.6,0.8c-6.6,2.2-10,8.3-9,15.4c0.9,6.5,6.4,11.1,13.9,11.2
		c13,0.2,26.1,0.1,39.1,0.1c16.7-0.1,33.5-0.1,50.2-0.4c6.8-0.1,11.5-4,13.5-10.5c2-6.4-0.1-11.9-5.2-15.9
		c-4.5-3.6-9.3-6.8-14.3-9.7c-8-4.8-16.3-9.3-24.6-14c5.9-11.5,11.6-22.5,17.7-34.3c0.7,1.6,0.9,1.9,0.9,2.2c0.1,1.5,0.2,3,0.3,4.4
		c1.1,11.7,4.2,22,15.2,28.8c8.2,5.1,15.7,11.2,23.6,16.8c7,4.9,14.7,4.1,18.6-1.8C160.2,184.9,158.2,177.6,151.4,172.8z"/>
	<path d="M215.3,182.2c13.4,4.7,22.8,0.5,26-13.2c2.4-10.2,2.7-20.9,3.6-31.4c0.1-1.3-0.9-3.2-2-4c-0.6-0.4-2.6,0.6-3.8,1.4
		c-6.1,3.8-12.1,7.8-18.3,11.5c-4.3,2.6-9.1,4.3-13.2,7.1c-7.4,5-8.5,12.7-3.4,20c3.4-2.6,6.6-5.3,10.1-7.7
		c3.3-2.1,6.9-3.8,10.3-5.7c-10.8,8.4-19.4,18.3-25,31c-3.5-4.3-6.6-8.2-9.8-12c-3.2-3.8-6.5-7.5-9.3-10.8c4.2,2.6,9.1,5.6,14,8.7
		c2.9-6,1.4-10.6-5.1-14.6c-6.9-4.3-13.9-8.5-20.8-12.8c-2.4-1.5-4.3-1.2-4,1.9c0.7,8.3,0.9,16.7,2.9,24.7c2,8.1,7.8,10.4,16,8.6
		c1.5-0.3,3.5-0.7,4.6-0.1c6.8,4.4,10.1,14.6,8,22c-11,2.9-21.6,5.6-32.1,8.4c-3.7,1-5.7,3.7-3.4,7c1,1.5,4.2,2.1,6.4,2.2
		c20.8,0.2,41.7,0.1,62.5,0.1c1.3,0,2.8,0.3,3.8-0.3c1.4-0.9,3.1-2.3,3.5-3.8c0.3-1.1-1.2-3-2.3-4c-1.2-1-3-1.3-4.6-1.8
		c-9.3-2.4-18.6-4.7-28.4-7.2c0.6-9.7,4.1-18.6,10.5-26.5C213.3,181.5,214.3,181.9,215.3,182.2z"/>
	<path d="M126.6,85.5c16.5,0.2,29.7-12.6,29.8-28.8c0.1-16-12.8-29.3-28.6-29.6C111.3,26.8,97.7,40,97.6,56.3
		C97.5,72.1,110.7,85.3,126.6,85.5z"/>
</g>
</svg>
