<?xml version="1.0" encoding="utf-8"?>
<!-- Generator: Adobe Illustrator 24.0.1, SVG Export Plug-In . SVG Version: 6.00 Build 0)  -->
<svg version="1.1" id="Layer_1" xmlns="http://www.w3.org/2000/svg" xmlns:xlink="http://www.w3.org/1999/xlink" x="0px" y="0px"
	 viewBox="0 0 250 250" style="enable-background:new 0 0 250 250;" xml:space="preserve">
<g>
	<path d="M176,135.4c-0.6-5.9-1.1-11.7-1.9-17.6c-1.9-14-5.2-27.7-10.3-40.8c-0.4-1.1-1-2.4-1.9-2.9c-3.3-1.9-6.8-3.5-10.7-5.4
		c-1.6,11-2.1,21.2,0.8,31.9c1.1-3.8,2.1-7.1,3.1-10.7c0.4,0.7,0.6,0.9,0.6,1.2c3.5,11.8,6,23.8,7.3,36.1c0.6,5.7,0.9,11.5,1.3,17.2
		c0.2,3,2.1,5,5,5.5c3.5,0.6,5.5-1.4,7.1-4.1c0-2.8,0-5.7,0-8.5C176.2,136.6,176,136,176,135.4z"/>
	<path d="M158.3,190.4c-0.4-0.6-0.9-1.1-1.4-1.6c-3.6,2.7-6.9,5.3-10.2,7.8c-2.1-0.5-3.3-3.5-5.9-1.5c-13.1-17.1-26.1-34.1-39-51.1
		c-0.4-0.6-0.8-1.5-0.7-2.2c0.7-8,1.2-16.1,2.4-24c1.1-7.1,2.7-14.1,4.3-21.2c0.5-1.9,1-3.7,1.6-5.6c0.1-0.3,0.3-0.5,0.6-1.2
		c1.1,3.6,2,6.9,3.1,10.7c0.1-0.2,0.1-0.4,0.2-0.6c0.1,0,0.2,0,0.3,0c0.6-3.8,1.2-7.7,1.8-12c-0.1,0.1-0.2,0.1-0.4,0.2
		c0.4-6.4-0.2-12.7-1.2-19.4c-2.5,1.2-4.7,2.3-6.9,3.4c-1.5,0.4-2.6,1.1-3.5,1.9c-0.1,0-0.1,0.1-0.2,0.1c-0.9,0.5-1.5,1.8-1.9,2.9v0
		c-0.5,1-0.8,2.1-1.2,3.2c-0.5,1.4-1,2.8-1.5,4.2c0,0,0,0.1,0,0.1l0,0c-3.6,10.9-6.1,22-7.7,33.4c-0.1,0.7-0.2,1.4-0.3,2.1
		c-0.4,2.7-0.7,5.5-1,8.3C85.6,122.9,81.8,118,78,113c2.5-2,4.8-3.8,7.2-5.6c-1.3-1.7-2.5-3.2-3.7-4.8c-6.5,4.9-12.7,9.7-19.1,14.6
		c1.3,1.7,2.5,3.2,3.7,4.8c2.5-1.9,4.8-3.7,7.3-5.5c3.7,4.9,7.1,9.7,11,14.2c2.2,2.5,3.7,5,4.4,8c0,2.3,0,4.6,0,6.9
		c0.3,0.4,0.5,0.8,0.8,1.2c0.7,1.3,1.9,2.3,3.4,2.8c0.9,0.3,1.8,0.3,2.9,0.2c0.4-0.1,0.8-0.2,1.1-0.3c1.4-0.3,2,0.4,2.7,1.4
		c8.3,10.9,16.6,21.7,24.9,32.6c3.9,5.1,7.8,10.2,11.7,15.3c-0.3,0.1-0.5,0.1-0.8,0.2c0,1-0.4,2.1,0,3c1,2.1,0.4,3.3-1.5,4.6
		c-2.8,1.8-5.3,4-8.1,6.1c0.5,0.7,0.9,1.4,1.4,1.9c4.6,6.1,9.2,12.2,14,18.1c1.3,1.6,3.1,3.1,5,3.9c4.8,2,9.9,2.8,15.1,2.4
		c5.8-0.4,10-3.2,11.6-8.9c1-3.5,1.5-7.3,2-11c0.5-4.7-0.9-8.7-4-12.4C166.5,201.5,162.5,195.9,158.3,190.4z"/>
	<path d="M112.5,123.2c-2,0-2.7,0.7-2.9,2.4c-0.9,6.6-1.9,13.1-2.7,19.7c-0.1,1,0.3,2.4,1,3.2c3.3,4.5,6.7,8.8,10,13.2
		c1.7,2.2,3.4,4.4,5.4,7c0.5-4.4,0.7-8.2,1.3-11.9c0.6-4,3.2-6.6,6.6-8.5c0.5-0.3,1.3-0.4,1.9-0.3c2.5,0.4,7.1,5.3,7.4,7.9
		c1.2,11.5,2.5,23,3.6,34.5c0.2,1.8,0.6,3.2,2.6,3.6c3.5-2.7,7.1-5.4,10.7-8.2c1.9,2.5,3.7,4.8,5.5,7.1c0.1-0.1,0.2-0.1,0.4-0.2
		c-0.5-4.8-0.9-9.6-1.4-14.4c-1.1-11.1-2.2-22.1-3.5-33.2c-0.8-6.5-1.8-13-2.7-19.5c-0.3-1.9-1.2-2.6-3.2-2.6
		C139.1,123.3,125.8,123.3,112.5,123.2z"/>
	<path d="M110.5,168.4c-1.7-2.2-3.3-4.3-5.4-6.9c-0.9,8.9-1.8,17.3-2.7,25.6c-1.2,11-2.3,22.1-3.4,33.2c-0.3,3.4-0.8,6.9-0.4,10.2
		c0.6,4.6,5.1,7.4,10,7.1c4.5-0.3,8-4.1,8.5-9.2c0.4-3.8,0.8-7.6,1.2-11.4c1.1-10.8,2.3-21.5,3.3-32.3c0.1-1-0.3-2.2-0.9-3
		C117.3,177.3,113.9,172.9,110.5,168.4z"/>
	<path d="M112.1,37.1c13.5,0,27,0,40.6,0c1.7,0,3.4-0.2,3.9-2.2c0.5-2.2-1-3-2.7-3.7c-0.1,0-0.2-0.2-0.3-0.3
		c-0.5-6.6-3.4-11.9-9-16.2c-0.1,0.8,0,1.4-0.2,1.6c-0.7,0.7-1.6,1.9-2.3,1.8c-0.7-0.1-1.5-1.3-2-2.2c-0.3-0.6,0.1-1.5-0.1-2.2
		c-0.2-0.7-0.7-1.5-1.3-1.8c-1.2-0.5-2.5-0.7-4-1c0,1.9,0,3.5,0,5c0,1.4-0.6,2.3-2.1,2.3c-1.5,0-2.1-1-2.1-2.4c0-1.6,0-3.1,0-4.7
		c-4.6,0-5.3,0.6-5.5,4.5c-0.1,1.3-0.4,2.4-2,2.5c-1.6,0.1-2.2-0.9-2.3-2.4c0-0.3-0.1-0.6-0.2-1.2c-5.1,3.8-8,8.5-8.9,14.5
		c-0.1,0.8-0.5,1.9-1.1,2.2c-1.5,0.8-2.6,1.6-2.2,3.4C108.9,36.7,110.4,37.1,112.1,37.1z"/>
	<path d="M152.4,39c-1.1,0-2,0-3,0c-11.2,0-22.4,0-33.6,0c-3.6,0-3.8,0.2-3.5,3.7c1.1,11.6,9.7,19.3,21.4,19
		C145.1,61.5,154.2,50.6,152.4,39z"/>
	<path d="M132.3,66.4c-0.3,0-0.7,0-1,0c-4.5,0.1-9,0.6-13.7,1.6c1.8,3.2,3.3,6.4,5.2,9.2c1.2,1.8,2.9,3.4,4.7,4.7
		c1.5,1.1,3.1,1.6,4.8,1.5c1.6,0.1,3.3-0.4,4.8-1.5c1.8-1.3,3.5-2.9,4.7-4.7c1.9-2.8,3.4-5.9,5.2-9.2c-4.7-1-9.2-1.5-13.7-1.6
		C132.9,66.4,132.6,66.4,132.3,66.4z"/>
</g>
</svg>
