<?xml version="1.0" encoding="utf-8"?>
<!-- Generator: Adobe Illustrator 24.0.1, SVG Export Plug-In . SVG Version: 6.00 Build 0)  -->
<svg version="1.1" id="Layer_1" xmlns="http://www.w3.org/2000/svg" xmlns:xlink="http://www.w3.org/1999/xlink" x="0px" y="0px"
	 viewBox="0 0 250 250" style="enable-background:new 0 0 250 250;" xml:space="preserve">
<g>
	<path d="M132.7,103.4c-16.7-0.1-33.5,0-50.2,0v0c-16.6,0-33.2,0-49.7,0c-14.3,0-23.4,8.9-23.5,23.1c-0.1,23.4-0.1,46.9,0,70.3
		c0.1,13.8,9.2,23.1,23.1,23.1c33.3,0.1,66.6,0.1,100,0c13.4,0,22.8-9,22.9-22.3c0.2-24.1,0.3-48.2,0-72.2
		C155.1,112.1,146,103.5,132.7,103.4z M92.5,164.6c-2.3,2.1-3,4.1-2.9,7c0.2,4,0.1,8,0,11.9c-0.2,4.4-3.1,7.2-7.2,7.3
		c-4.2,0-7.1-2.6-7.4-7c-0.2-2.4,0-4.8,0-7.2c0.3-5.1-0.1-9.5-4.3-13.7c-5.5-5.4-3.8-15,2.3-20c6-4.9,15.2-4.2,20.3,1.6
		C98.6,150.6,98.5,159.3,92.5,164.6z"/>
	<path d="M52.9,95.4c0-2.2-0.2-4.1,0-6c0.6-5.8,0.7-11.8,2.2-17.4c2.7-10,8.8-17.2,19.6-19.4c19.3-3.9,33.1,5.6,35.9,25.1
		c0.9,5.9,1,11.9,1.4,17.6c7.3,0,14.2,0,22,0c-0.9-8.4-1.1-16.4-2.6-24.1c-8.6-43.3-52.1-48.4-76.2-33.9c-18.3,11-26,35.2-23.5,58.1
		C38.5,95.4,45.3,95.4,52.9,95.4z"/>
	<path d="M226.4,60.4c-5.1-3.8-11.1-5.6-17.1-7.1c-2.8,0-5.5,0-8.3,0c-1.3,0.3-2.6,0.7-3.9,1c-14.6,3.6-25.7,15.5-27.4,29.5
		c-2,16.2,5.3,30.1,19.7,37.5c1.5,0.8,2.2,1.6,2.1,3.4c-0.1,5.2,0.1,10.4-0.1,15.7c-0.1,2.4,0.7,3.6,2.9,4.5
		c2.8,1.2,5.4,2.7,8.7,4.3c-3.5,1.8-6.6,3.2-9.5,4.9c-0.9,0.5-1.9,1.6-1.9,2.4c0.1,1,1.1,2.1,2,2.7c2.9,1.7,5.9,3.1,9.4,4.8
		c-3.6,1.8-6.7,3.3-9.6,4.9c-0.8,0.5-1.8,1.6-1.8,2.4c0,0.8,1,2,1.8,2.5c3,1.7,6.1,3.2,9.6,4.9c-4.3,2.2-8,4.1-12.4,6.3
		c5.2,4.2,9.9,8,14.6,11.8c4-3.2,7.7-6.2,11.5-9.1c1.7-1.3,2.3-2.7,2.3-4.8c-0.1-19.2,0-38.3-0.1-57.5c0-2.2,0.6-3.3,2.7-4.3
		C245,108.9,247.6,76.2,226.4,60.4z M204.8,100.6c-6.2-0.1-11.1-5.3-11-11.6c0.1-6.2,5.2-11.3,11.3-11.3c6.3,0,11.4,5.3,11.3,11.7
		C216.4,95.8,211.2,100.7,204.8,100.6z"/>
</g>
</svg>
