<?xml version="1.0" encoding="utf-8"?>
<!-- Generator: Adobe Illustrator 24.0.1, SVG Export Plug-In . SVG Version: 6.00 Build 0)  -->
<svg version="1.1" id="Layer_1" xmlns="http://www.w3.org/2000/svg" xmlns:xlink="http://www.w3.org/1999/xlink" x="0px" y="0px"
	 viewBox="0 0 250 250" style="enable-background:new 0 0 250 250;" xml:space="preserve">
<g>
	<path d="M87.9,125.1c1.8,3.7,4.3,7.2,6.9,10.4c17.6,21.8,45.4,23.2,64.3,2.6c5.5-6,9.5-13.7,13-21.2c2.4-5.2,4.4-10,9.2-13.9
		c3.4-2.8,5.5-7.8,6.9-12.2c1.9-5.9-1.3-13.1-6.9-14.9c-6-1.9-6.5-6.1-6.5-11c-0.1-4,0-8,0-12c0.2,0,0.4,0,0.6,0
		c0-3.2-0.3-6.4,0.1-9.6c0.8-6.3-1.7-11.2-5.8-15.6C145,1.4,112.2,5.4,89.4,23.5c-6,4.8-8.7,11.1-8.3,18.9
		c0.4,7.8,0.9,15.6,0.6,23.3c-0.1,3-1.3,7.4-3.4,8.5c-11.8,6-15.4,16.8-5.8,26.2C79.9,107.8,83.6,116.3,87.9,125.1z M114.5,24.5
		c5.1-0.5,10.3-0.6,15.5-0.9c5,0.3,10,0.3,14.9,0.9c4.8,0.6,8.2,3,7.8,8.6c-0.5,8-3.3,11.6-9.1,11.6c-9.3,0.1-18.6,0.1-27.9,0
		c-5.4-0.1-8.1-3.7-8.5-10.8C106.8,27.9,108.9,25.1,114.5,24.5z M81.9,78.3c0.6,3.3,1.1,6.2,1.8,10.4c1.7-5.1,3.1-9.2,4.6-13.7
		c3.2,2.5,6,4.7,9.3,7.2c8.5-8.8,18.4-15.3,31-15.7c12.9-0.5,22.9,5.6,31,16c2.6-2.3,4.9-4.4,8.1-7.4c0.5,4.8,0.9,8.8,1.5,14.6
		c1.3-2.9,1.8-4.3,2.6-5.4c1.3-2,2.9-3.9,4.4-5.9c2.6,2.4,6.6,4.2,7.6,7.2c2.2,6.3-0.7,12.1-6,15.5c-4.6,3-6.3,6.9-8.2,11.6
		c-2.8,6.9-6,14.1-10.6,19.8c-18.3,22.6-46.1,21.5-63.1-2.2c-2.7-3.7-5.1-7.7-6.6-11.9c-2.7-7.2-4.8-14.4-12.4-18.4
		c-2.1-1.1-3.4-4.3-4.4-6.9C69.1,85,72.5,79.6,81.9,78.3z"/>
	<path d="M67.3,226.1c6.8-18,7.4-35.3,1.7-52.9c5.5-2.8,10.6-5.4,15.8-8.1c6.7,15.5,8.7,30.7,7.1,47.3c13.7,0,26.7-0.1,39.6,0.1
		c4.9,0.1,9.1-0.1,12.4-4.9c1.8-2.6,5.6-3.6,8.3-5.6c2.5-1.9,5.4-3.8,7-6.3c3.3-5.4,5.9-11.2,8.8-16.9c2.8-5.6,5.6-11.2,8.6-17.3
		c-4-1.2-7.2-2.1-10.4-3.2c-4.2-1.5-6.9-1-10,3c-8.6,11-20.3,14.8-34,12c-10.2-2.1-17.4-8.3-23.3-17.7c-9.8,4-19.7,7.1-28.8,12
		c-24.5,13.1-32.3,31.7-25.6,59.2c30.5,5.3,61.3,6.9,92.4,5.1c-11.2-1.7-22.5-2-33.7-2.7C91.5,228.3,79.8,227.1,67.3,226.1z"/>
	<path d="M208.1,122.7c-1.1,19.1-1.1,19.1-9.4,19.1c-11.3,0.1-11.3,0.1-12.8-19.7c-10.1,6.9-12.2,18.8-4.9,28.3
		c2.7,3.6,2.8,6.3,0.8,10.2c-6.7,12.5-12.7,25.3-19.5,37.6c-1.6,2.9-5.3,4.7-8,7.1c-3.9,3.5-8.7,6.4-11.6,10.6
		c-5.2,7.6-1.4,22.5,7.5,24.7c0-1.7,0-3.2,0-4.8c0.1-14.3,0.7-14.8,14.9-14c4.6,0.3,7,2.3,7,7c0,3.9,0,7.8,0,12.1
		c10.9-6.2,13.5-18.4,6.2-28.5c-2.5-3.4-2.7-6.1-0.8-9.7c5.9-11.3,11.5-22.7,17.2-34.1c2.8-5.7,5.7-10.6,12.7-13.2
		c4.2-1.5,7.9-6.7,10-11C221.3,136.8,215.9,125.4,208.1,122.7z"/>
	<path d="M196.4,172.2c-6.4,13.4-9.2,26.9-8.9,41c0.1,5.5,2.7,11.5-2.8,16c-0.1,0.1,0.2,0.7,0.6,1.8c8.8-1.2,17.9-2.2,26.8-3.9
		c1.5-0.3,3.6-3.1,3.7-4.9c0.5-6.9,1-14,0.3-20.9C214.8,188.6,207.2,179.5,196.4,172.2z"/>
	<path d="M107.8,101.8c2.4-0.3,5.4-3.2,6.1-5.5c0.4-1.4-3-5.3-5.1-5.6c-2.1-0.4-4.8,2.2-7.2,3.5c-0.1,1-0.1,2-0.2,3
		C103.5,98.8,105.8,102,107.8,101.8z"/>
	<path d="M148.7,101.8c2.1,0.4,4.8-2.3,7.2-3.6c0.1-1,0.1-1.9,0.2-2.9c-2.2-1.7-4.5-4.9-6.5-4.7c-2.3,0.3-5.5,3.2-6.1,5.5
		C143.2,97.6,146.6,101.5,148.7,101.8z"/>
	<rect x="153" y="227.7" width="16.9" height="4.8"/>
</g>
</svg>
