<?xml version="1.0" encoding="utf-8"?>
<!-- Generator: Adobe Illustrator 24.0.1, SVG Export Plug-In . SVG Version: 6.00 Build 0)  -->
<svg version="1.1" id="Layer_1" xmlns="http://www.w3.org/2000/svg" xmlns:xlink="http://www.w3.org/1999/xlink" x="0px" y="0px"
	 viewBox="0 0 250 250" style="enable-background:new 0 0 250 250;" xml:space="preserve">
<g>
	<path d="M207.4,169.5c0-2.1-0.1-4.3-0.5-6.4c-1.3-6.4-4.8-11.3-10.2-14.9c-0.6-0.4-1.1-1.2-1.3-1.9c-0.4-2-0.4-4.2-1-6.1
		c-3.2-10-6.4-20-9.7-29.9c-3-9.3-5.9-18.6-9.3-27.8c-2.6-7-8.2-11.1-15.6-11.4c-10.6-0.4-21.3-0.1-32-0.1c-3,0-5.8,0.8-8,2.8
		c-2.6,2.3-4.9,4.8-7.4,7.2c-6.8,6.4-13.6,12.9-20.4,19.3c-3.1,2.9-6.2,5.8-9.6,9V61.4c6.9,0,13.6,0.1,20.3,0
		c4.9-0.1,8.1-3.3,8.1-8.2c0-4,0-8.1,0-12.1c0-4.7-3-7.8-7.7-8.1c-0.7,0-1.4-0.1-2.1-0.2c0-1.3,0-2.5,0-3.6c-0.1-3.2-1.7-4.9-5-4.9
		c-12.8,0-25.6,0-38.5,0c-3.1,0-4.9,1.8-5,5c-0.1,1.2,0,2.4,0,3.7C51.5,33,50.9,33,50.3,33c-4.4,0.3-7.3,2.9-7.5,7.4
		c-0.2,4.6-0.2,9.2,0.1,13.8c0.3,4.6,3.4,7.1,8.1,7.2c5,0,10.1,0,15.1,0h5c0,0.7,0.1,1.1,0.1,1.5c0,18.5,0,37,0,55.5
		c0,0.9-0.5,1.9-1.1,2.6c-3.4,4.1-3.4,10.7,0,14.8c0.6,0.7,1.1,1.7,1.1,2.6c0.1,8.4,0.1,16.7,0.1,25.1c0,16.7,0,33.4,0,50.1
		c0,4,2.3,6.5,5.7,6.4c3.3-0.1,5.4-2.5,5.4-6.4c0-23.7,0-47.4,0-71.1c0-2.4,0.1-4.3,2.7-5.3c0.8-0.3,1.5-1.1,2.2-1.8
		c8.3-7.9,16.6-15.7,24.9-23.6c1.5-1.4,3-2.8,4.9-4.4v2.8c0,37.6,0,75.2,0,112.8c0,1,0,2,0.2,3c0.9,5.3,4.3,8.2,9.3,9.6h3.9
		c4.3-1.4,7.6-3.9,8.7-8.6c0.3-1.1,0.3-2.3,0.3-3.4c0-21.2,0-42.3,0-63.5v-2.5h8.9v2.4c0,19.9,0,39.7,0,59.6c0,2.4-0.1,5,0.4,7.3
		c1,5,4.6,7.6,9.3,8.7h3.5c3.9-1.2,7.2-3.3,8.5-7.2c1.5-4.5,0.7-9.2,0.8-13.8c-1.8-0.2-3.2-0.4-4.6-0.6c-6.7-0.6-10.3-4.5-10.3-11.2
		c0-11.4,0-22.8,0-34.1c0-5.4,1.2-10.6,3.9-15.3c2.8-4.9,6.7-8.7,12.2-10.8c0.5,1.7,1,3.1,1.5,4.7c-0.7,0.4-1.3,0.8-1.8,1.2
		c-6.1,4.2-9.9,10.1-10.1,17.5c-0.3,12.6-0.1,25.2-0.1,37.8c0,2.4,1.3,4,3.6,4.5c1.1,0.2,2.3,0.4,3.4,0.5c10.6,0.9,21.3,0.8,31.9,0
		c5.9-0.4,7.1-1.7,7.1-7.6C207.4,190.7,207.4,180.1,207.4,169.5z M168.7,167.4c0.1-4.7,1.9-8.5,5.3-11.5c0.5-0.4,1.1-0.7,1.5-1.2
		c1.1-1,2-1,3.2-0.2c3.8,2.4,7.6,2.2,11.4,0c0.6-0.4,1.9-0.5,2.4-0.1c4.6,2.9,7.1,7.2,7.2,12.9H168.7z"/>
	<path d="M168,41.3c-1.4,11.4-9.5,19.7-20.4,21.5C134,65,121.5,56,119.5,42c-1.9-13.6,7.6-25.3,20.3-27.3c0.3,0,0.5-0.2,0.7-0.4h6.1
		c2.4,0.7,5,1.2,7.3,2.3C163.8,21.1,169.2,31.2,168,41.3z"/>
</g>
</svg>
