<?xml version="1.0" encoding="utf-8"?>
<!-- Generator: Adobe Illustrator 24.0.1, SVG Export Plug-In . SVG Version: 6.00 Build 0)  -->
<svg version="1.1" id="Layer_1" xmlns="http://www.w3.org/2000/svg" xmlns:xlink="http://www.w3.org/1999/xlink" x="0px" y="0px"
	 viewBox="0 0 250 250" style="enable-background:new 0 0 250 250;" xml:space="preserve">
<g>
	<path d="M149.5,89.6v14.7h-9.8V89.6c-1,0.5-1.7,0.8-2.3,1.2c-5,3.1-7.6,7.7-7.4,13.6c0.2,5.9,3,10.3,8.2,13.1
		c0.6,0.3,1.5,0.9,1.6,1.4c0.2,1.6,0.1,3.3,0.1,4.9c-0.5,0.1-0.7,0.2-0.8,0.2c-8.1,0-16.2,0.1-24.4,0c-0.6,0-1.5-0.7-1.8-1.3
		c-3.2-5.3-6.3-10.7-9.4-16c-2.8-4.8-7.1-7.2-12.6-7.2c-6.2,0-12.5,0-18.8,0c-7,0-12,3.4-14.7,9.9c-6.3,15.2-12.6,30.4-18.8,45.7
		c-2.3,5.6-2.5,11.2,0,16.9c3.4,7.6,6.6,15.2,9.9,22.8c1.1,2.5,2.2,5,3.4,7.9h-2.3c-8.2,0-16.5-0.1-24.7,0
		c-8.4,0.1-14.3,7.6-12.1,15c0.1,0,0.1,0.1,0.2,0.1c0.1,0,0.1,0,0.2,0c21.9,0,43.8,0,65.7,0c0.5,0,1.4-0.8,1.5-1.2
		c0.2-2.6,0.6-5.3,0.1-7.8c-1.5-6.8-3.4-13.5-5.2-20.2c-0.9-3.4-1.7-6.8-2.6-10.4h18.8c1.6,13.3,3.1,26.4,4.7,39.5h24.2
		c-0.2-2.8-0.2-5.4-0.4-8c-1.5-15.3-3-30.6-4.4-46c-0.6-6.7-4.3-10.2-11.1-10.2c-5.3,0-10.6,0-15.9,0h-2.3
		c1.9-6.2,3.8-12.1,5.8-18.4c1.7,2.9,3.3,5.3,4.7,7.9c2.2,3.9,5.4,5.7,9.8,5.6c10.4-0.1,20.9,0,31.3,0h2.2v2.4c0,5.6,0,11.2,0,16.8
		c0,2.7,1.2,4.5,3.3,5.1c3.3,1.1,6.5-1.2,6.5-5c0.1-6.6,0.1-13.3,0-19.9c0-1.3,0.3-2.2,1.3-3.2c4.4-4.3,5.1-11.2,1.1-15.8
		c-2.2-2.4-2.5-4.8-2.4-7.7c0-0.6,0.1-1.2,0-1.7c-0.2-1.1,0.4-1.7,1.4-2.2c8.7-4.4,11.2-15.6,5.1-23.2
		C154.4,92.2,152.3,90.7,149.5,89.6z"/>
	<path d="M237.9,84.7c0-3.2,0-6.2,0-9.2c-0.1-3.7-1.9-5.5-5.6-5.5c-6.2,0-12.4,0-18.6,0c-16.3,0-32.6,0-48.9,0
		c-3.1,0-5.2,1.4-5.4,4.1c-0.3,3.4-0.1,6.9-0.1,10.6h9.8v2.4c0,7.3,0,14.6,0,21.8c0,3.2,1.9,5.2,5.2,5.2c3.5,0,7,0,10.4,0h8.9v2.4
		c0,15.2,0,30.4,0,45.6c0,4.1,1.9,6,6,6c5.9,0,11.7,0,17.6,0c4,0,5.8-1.8,5.9-5.8c0-5.5,0-11.1,0-16.6c0-0.7,0.1-1.4,0.1-2.2h14.5
		v-9.8c-6.4,0-12.7,0-18.9,0c-3.6,0-5.5,1.9-5.5,5.5c0,5.6,0,11.2,0,16.8v2h-9.7v-44c6.4,0,12.6,0,18.8,0c3.8,0,5.6-1.8,5.6-5.7
		c0-5.9,0-11.7,0-17.6v-6.1H237.9z"/>
	<path d="M88,94.5c12.3,0,22.1-9.8,22.2-22c0-12.3-9.8-22.1-22.1-22.1c-12.1,0-22.1,9.8-22.1,22C66,84.5,75.8,94.4,88,94.5z"/>
	<path d="M189,60h9.7V45.5h14.7v4.7h9.7c0.1-1.7,0.2-3.2,0.2-4.9h14.5v-9.7h-14.5c-0.1-1.2-0.2-2.3-0.3-3.3h-9.6
		c-0.1,1.1-0.1,2.2-0.2,3.4c-6.4,0-12.5,0-18.7,0c-3.9,0-5.7,1.8-5.7,5.7c0,5.7,0,11.5,0,17.2C188.8,58.9,188.9,59.4,189,60z"/>
</g>
</svg>
