<?xml version="1.0" encoding="utf-8"?>
<!-- Generator: Adobe Illustrator 24.0.1, SVG Export Plug-In . SVG Version: 6.00 Build 0)  -->
<svg version="1.1" id="Layer_1" xmlns="http://www.w3.org/2000/svg" xmlns:xlink="http://www.w3.org/1999/xlink" x="0px" y="0px"
	 viewBox="0 0 250 250" style="enable-background:new 0 0 250 250;" xml:space="preserve">
<g>
	<path d="M210.8,125.7c-28.6,0.2-57.2,0.1-85.7,0.1v0c-28.9,0-57.8,0-86.8,0c-7.4,0-11.3,5-9.7,12.2c1.1,5,2.1,10.1,3.2,15.1
		c3.4,15.9,6.7,31.7,10.1,47.6c1.6,7.4,3.3,14.7,4.6,22.1c0.9,5.7,4.4,9.3,10.1,9.4c12,0.1,23.9,0,35.9,0c18,0,36,0,53.9,0
		c15.8,0,31.5,0.1,47.3,0c4.9,0,8.8-3.5,9.7-8.1c2.1-10.5,4.2-21,6.4-31.5c3.8-18.1,7.3-36.2,11.6-54.2
		C223,131.3,218.4,125.7,210.8,125.7z M125.2,184.8c-2.6,0.1-5.1-2.2-5.2-4.9c-0.1-2.5,2.4-5.1,4.9-5.1c2.6,0,5.1,2.5,5,5
		C130,182.3,127.7,184.6,125.2,184.8z"/>
	<path d="M162.1,39.2c-3.2-18-19.1-31.4-36.7-31.6c-2.4,0.3-4.9,0.4-7.3,0.9C101.8,12.1,90,25.1,87.8,41.7
		c-1.2,9.2,0.3,18.2,2.7,27.1c2.6,9.5,7.1,18.1,14.3,25c10.9,10.4,25.7,11.6,37.5,2.8c6.4-4.8,11-11.2,14.2-18.6
		C161.9,65.6,164.5,52.6,162.1,39.2z M157.5,58.4c-1.4,9-4.2,17.4-9.5,24.9c-4.2,6-9.5,10.7-16.8,12.5c-11.1,2.8-19.6-1.7-26.8-9.8
		c-6-6.8-11.1-19.4-11.7-31c1.7,0.8,3.2,1.4,4.3,1.9c0-4.5-0.3-9,0.1-13.5c0.2-2.9,1.1-5.8,2.1-8.5c0.8-2.1,2.3-2.9,4.8-1.8
		c7.4,3.1,15.1,4.9,23.2,4.7c6.6-0.1,12.7-1.6,18.4-5.6c4,6.9,7.9,13.6,8.1,22.3c1.5-1.7,2.8-3.1,4.6-5.2
		C158,52.7,158,55.6,157.5,58.4z"/>
	<path d="M206.9,238.3c0,2.3-1.6,3.9-3.9,4c-1.9,0.1-3.9,0.1-5.8,0.1c-24.1,0-48.2,0-72.2,0v0c-25.6,0-51.2,0-76.8,0
		c-3.2,0-4.8-1.1-5.1-3.4c-0.3-2.9,1.5-4.7,4.8-4.7c11.9,0,23.7,0,35.6,0c38.8,0,77.7,0,116.5,0c1,0,2,0,3.1,0
		C205.5,234.4,206.9,236,206.9,238.3z"/>
	<path d="M194.6,123.6h-55c5.7-9.1,12.6-17.1,15.8-27.2C168.9,95.6,191.7,111.3,194.6,123.6z"/>
	<path d="M109.5,123.6H56c1.1-11,25.1-27.8,38.5-27.2c2.4,4.7,4.5,9.3,6.9,13.7C103.8,114.6,106.6,118.8,109.5,123.6z"/>
	<path d="M134.6,106.9c0.1,3.7-1.7,6.2-4.2,8.1c-1.8,1.3-1.9,2.7-1.6,4.6c0.2,1.3,0.2,2.5,0.4,4h-9.6c0.1-1.6,0.2-3.3,0.4-4.9
		c0.2-1.5-0.2-2.6-1.6-3.6c-2.6-1.8-4.1-4.4-4.5-8.1C120.9,109.7,127.6,110,134.6,106.9z"/>
</g>
</svg>
